<?xml version="1.0" encoding="UTF-8" standalone="no"?>
<svg
   xmlns:dc="http://purl.org/dc/elements/1.1/"
   xmlns:cc="http://creativecommons.org/ns#"
   xmlns:rdf="http://www.w3.org/1999/02/22-rdf-syntax-ns#"
   xmlns:svg="http://www.w3.org/2000/svg"
   xmlns="http://www.w3.org/2000/svg"
   xmlns:sodipodi="http://sodipodi.sourceforge.net/DTD/sodipodi-0.dtd"
   xmlns:inkscape="http://www.inkscape.org/namespaces/inkscape"
   version="1.1"
   id="svg2"
   xml:space="preserve"
   width="113.38667"
   height="43.106667"
   viewBox="0 0 113.38667 43.106667"
   sodipodi:docname="bueno.eps"><metadata
     id="metadata8"><rdf:RDF><cc:Work
         rdf:about=""><dc:format>image/svg+xml</dc:format><dc:type
           rdf:resource="http://purl.org/dc/dcmitype/StillImage" /></cc:Work></rdf:RDF></metadata><defs
     id="defs6" /><sodipodi:namedview
     pagecolor="#ffffff"
     bordercolor="#666666"
     borderopacity="1"
     objecttolerance="10"
     gridtolerance="10"
     guidetolerance="10"
     inkscape:pageopacity="0"
     inkscape:pageshadow="2"
     inkscape:window-width="640"
     inkscape:window-height="480"
     id="namedview4" /><g
     id="g10"
     inkscape:groupmode="layer"
     inkscape:label="ink_ext_XXXXXX"
     transform="matrix(1.3333333,0,0,-1.3333333,0,43.106667)"><g
       id="g12"
       transform="scale(0.1)"><path
         d="m 381.484,168.805 c 0,8.933 1.582,12.117 -8.32,17.429 l -6.848,3.399 v 6.164 h 68.254 v -6.164 l -6.953,-2.774 c -10.324,-4.246 -10.324,-5.41 -10.109,-18.054 l 0.105,-50.914 -2.531,-2.442 c -11.902,-3.086 -39.703,-10.742 -64.773,-10.742 -57.508,0 -85.84,30.078 -85.84,95.121 0,69.942 40.027,100.227 92.582,100.227 14.109,0 39.711,0 57.508,-15.196 5.898,-5 6.425,-10.625 6.425,-12.863 0,-4.246 -0.839,-5.098 -1.683,-6.797 l -12.75,-24.98 h -4.735 c 0,12.336 -14.218,45.168 -51.191,45.168 -42.863,0 -44.973,-30.176 -44.973,-81.203 0,-44.629 4.637,-84.789 55.821,-84.789 16.535,0 19.59,8.808 20.011,18.691 v 30.719"
         style="fill:#18468b;fill-opacity:1;fill-rule:nonzero;stroke:none"
         id="path14" /><path
         d="m 451.625,114.59 12.227,5 c 10,3.945 10,11.269 10,27.519 v 117.243 c 0,9.031 -2.52,13.492 -9.473,18.269 l -11.172,7.551 v 6.16 h 50.664 l 3.067,-1.914 c 5.566,-7.543 17.167,-27.84 32.753,-49.102 l 53.711,-73.75 c 2.207,-3.086 3.36,-4.461 4.414,-4.461 2.227,0 2.227,2.762 2.227,7.86 v 89.172 c 0,12.859 -0.215,15.41 -11.055,19.867 l -15.918,6.168 v 6.16 h 63.731 v -6.16 l -8.125,-3.082 c -11.895,-4.789 -14.219,-7.543 -14.219,-26.039 V 150.512 c 0,-16.879 0.332,-34.008 0.332,-39.848 l -1.914,-2.226 h -15.586 l -3.047,2.226 c -2.539,3.086 -16.953,23.594 -31.699,43.473 l -65.098,87.781 c -3.574,4.785 -5.261,7.336 -6.629,7.336 -2.531,0 -2.531,-2.871 -2.531,-6.809 V 142.129 c 0,-13.496 0,-17.754 11.699,-21.68 l 16.426,-5.859 v -6.152 h -64.785 v 6.152"
         style="fill:#18468b;fill-opacity:1;fill-rule:nonzero;stroke:none"
         id="path16" /><path
         d="m 653.109,114.59 12.227,4.14 c 9.16,3.086 9.473,8.204 9.473,25.84 v 121.266 c 0,13.387 0,16.785 -9.473,19.871 l -12.227,4.465 v 6.16 h 92.168 c 32.227,0 63.828,-7.012 63.828,-49.629 0,-39.004 -28.867,-63.133 -73.945,-63.133 -1.894,0 -4.414,0.321 -6.113,0.321 l -4.102,10.097 2.227,2.239 c 20.215,0.515 44.746,8.925 41.269,48.347 -2.734,30.723 -11.582,36.457 -36.543,36.457 -16.953,0 -18.105,-2.551 -18.105,-9.562 V 144.57 c 0,-18.808 -0.332,-22.754 10.84,-25.84 l 14.433,-4.14 v -6.152 h -85.957 v 6.152"
         style="fill:#18468b;fill-opacity:1;fill-rule:nonzero;stroke:none"
         id="path18" /><path
         d="m 850.219,79.3164 h -585.75 v 3.9258 h 585.75 v -3.9258"
         style="fill:#18468b;fill-opacity:1;fill-rule:nonzero;stroke:none"
         id="path20" /><path
         d="m 150.086,203.344 c 0,-17.324 -13.895,-31.348 -31.172,-31.348 -17.172,0 -31.0742,14.024 -31.0742,31.348 0,17.324 13.9022,31.347 31.0742,31.347 17.277,0 31.172,-14.023 31.172,-31.347"
         style="fill:#f57925;fill-opacity:1;fill-rule:nonzero;stroke:none"
         id="path22" /><path
         d="M 67.1953,255.738 H 0 l 13.582,-41.984 h 33.4961 v 0.117 c 33.918,0 61.4059,27.734 61.5159,62.063 v 33.683 l -41.3987,13.719 v -67.598"
         style="fill:#f57925;fill-opacity:1;fill-rule:nonzero;stroke:none"
         id="path24" /><path
         d="M 66.9922,151.059 V 83.3594 l 41.6018,13.5937 v 33.8089 h -0.11 c 0,34.215 -27.484,61.957 -61.5113,62.054 H 13.5898 L 0.0078125,151.059 H 66.9922"
         style="fill:#f57925;fill-opacity:1;fill-rule:nonzero;stroke:none"
         id="path26" /><path
         d="m 170.73,150.941 h 67.2 l -13.696,41.875 H 190.746 C 156.832,192.719 129.34,164.984 129.34,130.742 v -0.097 -33.5747 l 41.39,-13.7109 v 67.5816"
         style="fill:#f57925;fill-opacity:1;fill-rule:nonzero;stroke:none"
         id="path28" /><path
         d="m 170.836,255.523 v 67.704 l -41.496,-13.61 v -33.793 c 0.101,-34.219 27.594,-61.953 61.508,-62.07 h 0.109 33.281 l 13.692,41.769 h -67.094"
         style="fill:#f57925;fill-opacity:1;fill-rule:nonzero;stroke:none"
         id="path30" /><path
         d="m 834.906,293.258 c 6.426,0 11.68,-5.215 11.68,-12.649 0,-7.343 -5.254,-12.656 -11.68,-12.656 v -2.969 c 8.535,0 15.489,7.012 15.489,15.625 0,8.711 -6.954,15.723 -15.489,15.723 z m 0,-14.992 v 3.722 h 0.098 c 2.012,0 3.574,0.321 3.574,2.657 0,2.121 -1.875,2.449 -3.457,2.449 h -0.215 v 2.551 h 0.528 c 4.218,0 6.523,-1.497 6.523,-5.211 0,-3.082 -1.797,-4.575 -4.629,-4.782 l 4.746,-7.871 h -3.379 z m 0,-10.313 c -6.523,0 -11.797,5.313 -11.797,12.656 0,7.434 5.274,12.649 11.797,12.649 v 3.074 c -8.633,0 -15.586,-7.012 -15.586,-15.723 0,-8.613 6.953,-15.625 15.586,-15.625 z m 0,21.692 v -2.551 h -2.734 v -5.106 h 2.734 v -3.722 l -0.742,1.168 h -1.992 v -7.653 h -3.262 v 17.864 h 5.996"
         style="fill:#18468b;fill-opacity:1;fill-rule:nonzero;stroke:none"
         id="path32" /><path
         d="m 278.594,0 c -6.582,0 -10.664,1.875 -12.164,2.75391 -1.356,1.58203 -2.289,6.77734 -2.289,11.67969 0.496,0.9375 2.148,1.0156 2.718,0.2344 1.43,-4.70706 6.227,-11.34769 12.305,-11.34769 5.297,0 7.731,3.67188 7.731,7.28519 0,5.8593 -5.434,9.3164 -9.731,11.4843 -5.152,2.5977 -10.801,6.9336 -10.801,14.0821 -0.074,8.164 6.219,13.789 16.594,13.789 2.363,0 5.301,-0.2929 8.164,-1.1523 0.93,-0.293 1.57,-0.4297 2.43,-0.5664 0.57,-1.6016 1.289,-5.5078 1.289,-10.332 -0.363,-0.8789 -2.149,-0.9571 -2.789,-0.2149 -1.223,3.6719 -4.297,8.9453 -9.449,8.9453 -4.723,0 -7.301,-3.1054 -7.301,-6.7187 0,-3.3203 2.937,-6.3477 6.515,-8.2227 l 4.727,-2.539 C 290.977,26.7969 296.625,22.5977 296.625,14.668 296.625,5.76172 289.398,0 278.594,0"
         style="fill:#18468b;fill-opacity:1;fill-rule:nonzero;stroke:none"
         id="path34" /><path
         d="m 355.02,30.0391 c 0,-2.0313 0.066,-2.168 2,-2.168 h 4.937 c 3.727,0 4.574,0.5078 5.293,3.9648 l 0.363,1.7969 c 0.5,0.586 2.289,0.586 2.649,-0.0586 -0.145,-2.3047 -0.215,-4.9219 -0.215,-7.6562 0,-2.7539 0.07,-5.3516 0.215,-7.6563 -0.36,-0.6445 -2.149,-0.7226 -2.649,-0.0586 L 367.25,20 c -0.719,3.4766 -1.566,4.043 -5.293,4.043 h -4.937 c -1.934,0 -2,-0.0782 -2,-2.2461 v -8.5938 c 0,-3.32029 0.289,-5.62497 1.14,-6.85544 0.93,-1.3086 2.297,-1.875 7.516,-1.875 6.226,0 8.656,0.21484 12.594,8.37894 0.574,0.8007 2.363,0.5078 2.644,-0.3711 -0.281,-3.7305 -2,-9.58987 -2.996,-11.543 -3.801,0.13672 -10.668,0.21484 -16.535,0.21484 h -9.301 c -3.434,0 -6.941,-0.07812 -12.309,-0.21484 -0.57,0.42969 -0.57,2.14844 0,2.51953 l 3.364,0.50781 c 3.218,0.50782 3.652,0.9375 3.652,7.57816 v 26.9336 c 0,6.582 -0.434,7.0117 -3.652,7.6562 l -1.785,0.3711 c -0.653,0.4297 -0.575,2.0899 0.14,2.5195 3.36,-0.1367 6.863,-0.2148 10.301,-0.2148 h 15.172 c 4.574,0 8.656,0.0781 9.586,0.2148 0.078,-1.1523 0.57,-6.3476 0.926,-11.1914 -0.278,-0.8007 -1.922,-0.9375 -2.641,-0.2929 -0.785,2.539 -1.793,4.707 -2.719,5.7031 -1.363,1.3867 -3.508,2.2461 -7.015,2.2461 h -5.723 c -2.359,0 -2.359,-0.1563 -2.359,-2.8125 V 30.0391"
         style="fill:#18468b;fill-opacity:1;fill-rule:nonzero;stroke:none"
         id="path36" /><path
         d="m 464.43,9.31641 c 0,-3.02735 0.144,-4.49219 1.492,-4.76563 0.293,-0.29297 0.234,-1.52344 -0.195,-1.73828 -1.231,-0.21484 -3.086,-0.42969 -5.02,-1.09375 C 458.207,0.9375 452.055,0 448.043,0 c -4.855,0 -9.02,0.507813 -14.098,2.51953 -8.371,3.39844 -14.101,11.40627 -14.101,21.81637 0,9.0235 4.011,16.9532 12.597,21.7969 4.864,2.6758 10.668,3.8281 16.743,3.8281 7.949,0 11.875,-1.7382 14.16,-1.7382 0.215,-2.1485 0.293,-7.2071 1.015,-11.6211 -0.293,-0.7813 -2.226,-0.8594 -2.714,-0.1368 -2.305,6.7774 -6.797,10.1758 -13.457,10.1758 -11.383,0 -16.891,-9.5312 -16.891,-20.9375 0,-10.332 3.504,-16.46482 8.16,-19.64841 3.438,-2.30469 7.16,-2.73438 9.805,-2.73438 4.082,0 4.941,0.78125 4.941,5.48828 v 4.55081 c 0,3.8867 -0.43,4.3164 -3.867,4.8437 l -3.152,0.4297 c -0.793,0.4297 -0.793,2.0899 0,2.5195 5.086,-0.1367 8.582,-0.2148 12.097,-0.2148 3.438,0 6.934,0.0781 9.367,0.2148 0.575,-0.4296 0.575,-2.0898 0,-2.5195 l -1.652,-0.293 c -2.129,-0.3515 -2.566,-1.0937 -2.566,-4.9804 V 9.31641"
         style="fill:#18468b;fill-opacity:1;fill-rule:nonzero;stroke:none"
         id="path38" /><path
         d="m 515.238,38.3984 c 0,6.7188 -0.429,7.168 -3.652,7.8125 l -1.797,0.3516 c -0.566,0.4297 -0.633,2.0313 0.156,2.4609 3.43,-0.1562 7.012,-0.2148 10.45,-0.2148 3.496,0 7.011,0.0586 10.429,0.2148 0.586,-0.4296 0.586,-2.0312 0,-2.4609 l -1.707,-0.2734 c -3.234,-0.586 -3.652,-1.1719 -3.652,-7.8907 V 21.7383 c 0,-8.457 0.926,-17.77346 11.805,-17.77346 9.16,0 11.953,8.08596 11.953,17.96876 v 8.75 c 0,5.8398 -0.293,11.3281 -1.075,13.2031 -0.644,1.5235 -2.207,1.9531 -4.14,2.3242 l -1.934,0.3516 c -0.586,0.5859 -0.449,2.0313 0,2.4609 3.867,-0.1562 6.641,-0.2148 9.571,-0.2148 2.656,0 5.312,0.0586 8.027,0.2148 0.43,-0.4296 0.566,-1.875 0,-2.4609 l -1.289,-0.2734 c -1.856,-0.4493 -3.223,-0.8789 -3.867,-2.4024 -0.782,-1.875 -1.075,-7.3633 -1.075,-13.2031 v -8.0859 c 0,-6.7969 -0.644,-13.00786 -4.57,-17.40239 C 545.707,1.79688 540.492,0 534.691,0 c -5.429,0 -10.293,0.859375 -14.16,4.04297 -3.718,3.10547 -5.293,8.43753 -5.293,16.30863 v 18.0468"
         style="fill:#18468b;fill-opacity:1;fill-rule:nonzero;stroke:none"
         id="path40" /><path
         d="m 606.469,37.1094 c 0,7.2265 -0.156,8.0078 -3.145,8.457 l -1.933,0.2734 c -0.723,0.3711 -0.723,2.168 0.136,2.5391 5.371,0.3516 10.938,0.6445 17.754,0.6445 6.074,0 11.309,-0.9375 14.024,-2.5976 4.14,-2.461 6.289,-6.0742 6.289,-10.6836 0,-6.4258 -4.278,-9.1797 -7.578,-10.8399 -0.723,-0.3515 -0.723,-0.7812 -0.352,-1.582 4.707,-9.668 7.637,-15.09764 11.094,-18.04686 1.855,-1.52344 3.711,-1.95313 4.785,-2.03125 0.645,-0.3711 0.645,-1.44531 0.293,-1.875 -1.152,-0.507815 -3.438,-0.644534 -5.664,-0.644534 -6.582,0 -10.723,2.363284 -13.887,7.578124 -2.285,3.82812 -3.926,7.36332 -5.586,11.19142 -0.859,1.9531 -1.992,2.5195 -3.769,2.5195 -2.52,0 -2.657,-0.1367 -2.657,-1.582 V 11.543 c 0,-6.64066 0.43,-7.14847 3.653,-7.71487 l 1.914,-0.3711 c 0.508,-0.37109 0.508,-2.08984 0,-2.51953 -3.789,0.13672 -7.07,0.21484 -10.508,0.21484 -3.574,0 -6.719,-0.07812 -10.449,-0.21484 -0.567,0.42969 -0.567,2.14844 0,2.51953 l 1.933,0.3711 c 3.223,0.5664 3.653,1.07421 3.653,7.71487 z m 9.804,-9.1797 c 0,-2.5195 0.215,-2.7344 4.434,-2.7344 2.578,0 4.082,0.6445 5.449,2.0313 1.211,1.2304 2.559,3.5351 2.559,7.7929 0,6.4844 -3.789,10.6836 -9.375,10.6836 -2.93,0 -3.067,-0.2148 -3.067,-3.6914 v -14.082"
         style="fill:#18468b;fill-opacity:1;fill-rule:nonzero;stroke:none"
         id="path42" /><path
         d="M 735.141,25.1953 C 735.141,9.45313 724.672,0 709.301,0 c -14.395,0 -24.824,9.53125 -24.824,24.6094 0,14.3164 10.586,25.3515 25.546,25.3515 14.864,0 25.118,-10.1171 25.118,-24.7656 m -25.703,21.4453 c -8.809,0 -13.516,-8.3008 -13.516,-20.3711 0,-8.8086 3.066,-22.94919 14.726,-22.94919 9.395,0 13.028,9.23829 13.028,20.93749 0,12.3438 -5.352,22.3828 -14.238,22.3828"
         style="fill:#18468b;fill-opacity:1;fill-rule:nonzero;stroke:none"
         id="path44" /><path
         d="m 792.016,0 c -6.582,0 -10.664,1.875 -12.168,2.75391 -1.348,1.58203 -2.285,6.77734 -2.285,11.67969 0.507,0.9375 2.148,1.0156 2.714,0.2344 1.446,-4.70706 6.231,-11.34769 12.305,-11.34769 5.293,0 7.734,3.67188 7.734,7.28519 0,5.8593 -5.429,9.3164 -9.726,11.4843 -5.156,2.5977 -10.801,6.9336 -10.801,14.0821 -0.078,8.164 6.211,13.789 16.582,13.789 2.363,0 5.313,-0.2929 8.164,-1.1523 0.938,-0.293 1.582,-0.4297 2.442,-0.5664 0.566,-1.6016 1.289,-5.5078 1.289,-10.332 -0.371,-0.8789 -2.149,-0.9571 -2.793,-0.2149 -1.231,3.6719 -4.297,8.9453 -9.453,8.9453 -4.727,0 -7.286,-3.1054 -7.286,-6.7187 0,-3.3203 2.93,-6.3477 6.504,-8.2227 l 4.727,-2.539 C 804.398,26.7969 810.043,22.5977 810.043,14.668 810.043,5.76172 802.816,0 792.016,0"
         style="fill:#18468b;fill-opacity:1;fill-rule:nonzero;stroke:none"
         id="path46" /></g></g></svg>
