<?xml version="1.0" encoding="UTF-8"?>
<svg xmlns="http://www.w3.org/2000/svg" xmlns:xlink="http://www.w3.org/1999/xlink" width="452.4pt" height="122.4pt" viewBox="0 0 452.4 122.4" version="1.1">
<defs>
<clipPath id="clip1">
  <path d="M 405 22 L 452.398438 22 L 452.398438 71 L 405 71 Z M 405 22 "/>
</clipPath>
<clipPath id="clip2">
  <path d="M 116 86 L 143 86 L 143 122.398438 L 116 122.398438 Z M 116 86 "/>
</clipPath>
<clipPath id="clip3">
  <path d="M 148 87 L 172 87 L 172 122.398438 L 148 122.398438 Z M 148 87 "/>
</clipPath>
<clipPath id="clip4">
  <path d="M 177 86 L 204 86 L 204 122.398438 L 177 122.398438 Z M 177 86 "/>
</clipPath>
<clipPath id="clip5">
  <path d="M 209 87 L 236 87 L 236 122.398438 L 209 122.398438 Z M 209 87 "/>
</clipPath>
<clipPath id="clip6">
  <path d="M 242 87 L 270 87 L 270 122.398438 L 242 122.398438 Z M 242 87 "/>
</clipPath>
<clipPath id="clip7">
  <path d="M 273 86 L 300 86 L 300 122.398438 L 273 122.398438 Z M 273 86 "/>
</clipPath>
<clipPath id="clip8">
  <path d="M 303 86 L 329 86 L 329 122.398438 L 303 122.398438 Z M 303 86 "/>
</clipPath>
</defs>
<g id="surface1">
<path style=" stroke:none;fill-rule:evenodd;fill:rgb(89.0625%,0%,13.330078%);fill-opacity:1;" d="M 47.613281 -0.0625 C 73.871094 -0.0625 95.15625 21.222656 95.15625 47.480469 C 95.15625 73.738281 73.871094 95.027344 47.613281 95.027344 C 21.351563 95.027344 0.0664063 73.738281 0.0664063 47.480469 C 0.0664063 21.222656 21.351563 -0.0625 47.613281 -0.0625 Z M 47.613281 4.464844 C 23.855469 4.464844 4.59375 23.726563 4.59375 47.480469 C 4.59375 71.238281 23.855469 90.496094 47.613281 90.496094 C 71.367188 90.496094 90.628906 71.238281 90.628906 47.480469 C 90.628906 23.726563 71.367188 4.464844 47.613281 4.464844 Z M 47.613281 4.464844 "/>
<path style=" stroke:none;fill-rule:evenodd;fill:rgb(89.0625%,0%,13.330078%);fill-opacity:1;" d="M 49.945313 56.699219 L 49.945313 71.269531 L 45.28125 71.269531 L 45.28125 56.699219 C 43.054688 56.699219 40.144531 56.6875 39.042969 56.652344 L 23.578125 56.6875 C 22.265625 56.753906 20.917969 56.453125 19.707031 55.753906 C 17.355469 54.398438 16.09375 51.894531 16.195313 49.375 C 16.195313 49 16.238281 48.675781 16.285156 48.417969 C 16.835938 45.332031 17.917969 42.296875 19.570313 39.441406 C 21.226563 36.570313 23.328125 34.101563 25.734375 32.078125 C 27.355469 30.882813 29.617188 30.285156 31.703125 30.648438 C 32.292969 28.660156 33.671875 27.015625 35.472656 26.078125 C 35.8125 25.882813 36.132813 25.75 36.398438 25.652344 C 39.902344 24.382813 43.683594 23.695313 47.613281 23.695313 C 51.5625 23.695313 55.359375 24.390625 58.878906 25.671875 C 60.90625 26.554688 62.710938 28.394531 63.46875 30.59375 C 65.460938 30.136719 67.519531 30.582031 69.140625 31.8125 C 71.550781 33.835938 73.996094 36.570313 75.65625 39.441406 C 77.304688 42.296875 78.386719 45.332031 78.9375 48.417969 C 78.984375 48.675781 79.027344 49 79.027344 49.375 C 79.128906 51.894531 77.867188 54.398438 75.515625 55.753906 C 74.304688 56.453125 72.957031 56.753906 71.648438 56.6875 L 56.179688 56.652344 C 55.078125 56.6875 52.171875 56.699219 49.945313 56.699219 Z M 66.410156 35.589844 C 65.675781 35.03125 64.644531 34.9375 63.792969 35.429688 C 63.34375 35.683594 63.015625 36.066406 62.816406 36.503906 L 54.980469 50.160156 C 54.742188 50.519531 54.710938 51 54.941406 51.398438 C 55.179688 51.808594 55.621094 52.023438 56.0625 51.984375 L 71.800781 52.023438 C 72.265625 52.066406 72.746094 51.96875 73.183594 51.714844 C 74.003906 51.242188 74.433594 50.351563 74.363281 49.464844 C 74.367188 49.402344 74.363281 49.328125 74.347656 49.234375 C 73.890625 46.675781 72.988281 44.152344 71.613281 41.773438 C 70.234375 39.378906 68.488281 37.328125 66.488281 35.648438 C 66.460938 35.628906 66.433594 35.609375 66.410156 35.589844 Z M 28.8125 35.589844 C 29.550781 35.03125 30.578125 34.9375 31.429688 35.429688 C 31.878906 35.683594 32.210938 36.066406 32.40625 36.503906 L 40.242188 50.160156 C 40.480469 50.519531 40.511719 51 40.28125 51.398438 C 40.046875 51.808594 39.601563 52.023438 39.15625 51.984375 L 23.421875 52.023438 C 22.957031 52.066406 22.476563 51.96875 22.039063 51.714844 C 21.21875 51.242188 20.789063 50.351563 20.863281 49.464844 C 20.855469 49.402344 20.859375 49.328125 20.875 49.234375 C 21.332031 46.675781 22.234375 44.152344 23.609375 41.773438 C 24.988281 39.378906 26.734375 37.328125 28.734375 35.648438 C 28.761719 35.628906 28.789063 35.609375 28.8125 35.589844 Z M 57.394531 30.101563 C 58.445313 30.542969 59.179688 31.578125 59.179688 32.789063 C 59.179688 33.425781 58.976563 34.011719 58.632813 34.492188 L 48.910156 51.230469 C 48.671875 51.707031 48.179688 52.035156 47.613281 52.035156 C 47.03125 52.035156 46.53125 51.695313 46.296875 51.199219 L 36.582031 34.464844 C 36.25 33.992188 36.058594 33.421875 36.058594 32.800781 C 36.058594 31.636719 36.742188 30.628906 37.730469 30.164063 C 37.792969 30.121094 37.875 30.078125 37.984375 30.039063 C 40.988281 28.953125 44.234375 28.359375 47.613281 28.359375 C 51.007813 28.359375 54.265625 28.957031 57.285156 30.054688 C 57.324219 30.070313 57.363281 30.085938 57.394531 30.101563 Z M 57.394531 30.101563 "/>
<path style=" stroke:none;fill-rule:evenodd;fill:rgb(89.0625%,0%,13.330078%);fill-opacity:1;" d="M 136.484375 22.585938 L 148.09375 46.359375 L 159.707031 22.585938 L 177.261719 22.585938 L 177.261719 70.132813 L 159.707031 70.132813 L 159.707031 46.359375 L 148.09375 70.128906 L 136.484375 46.359375 L 136.484375 70.128906 L 118.929688 70.128906 L 118.929688 22.585938 Z M 136.484375 22.585938 "/>
<path style=" stroke:none;fill-rule:evenodd;fill:rgb(89.0625%,0%,13.330078%);fill-opacity:1;" d="M 212.0625 29.707031 L 204.933594 54.527344 L 219.191406 54.527344 Z M 182.894531 70.132813 L 196.550781 22.585938 L 227.574219 22.585938 L 241.226563 70.132813 L 223.671875 70.132813 L 221.429688 62.328125 L 202.691406 62.328125 L 200.449219 70.132813 Z M 182.894531 70.132813 "/>
<path style=" stroke:none;fill-rule:evenodd;fill:rgb(89.0625%,0%,13.330078%);fill-opacity:1;" d="M 268.480469 28.050781 C 272.4375 28.050781 276.285156 30.167969 276.285156 34.476563 C 276.285156 38.785156 272.894531 42.277344 268.480469 42.277344 L 264.675781 42.277344 L 264.675781 28.050781 Z M 279.679688 22.609375 C 287.335938 22.609375 293.539063 28.8125 293.539063 36.46875 C 293.539063 44.121094 287.335938 50.328125 279.679688 50.328125 L 264.375 50.328125 L 264.375 70.132813 L 246.824219 70.132813 L 246.824219 22.609375 Z M 279.679688 22.609375 "/>
<path style=" stroke:none;fill-rule:evenodd;fill:rgb(89.0625%,0%,13.330078%);fill-opacity:1;" d="M 299.628906 22.585938 L 346.300781 22.585938 L 346.300781 30.386719 L 317.183594 30.386719 L 317.183594 42.480469 L 346.300781 42.480469 L 346.300781 50.28125 L 317.183594 50.28125 L 317.183594 70.132813 L 299.628906 70.132813 Z M 299.628906 22.585938 "/>
<g clip-path="url(#clip1)" clip-rule="nonzero">
<path style=" stroke:none;fill-rule:evenodd;fill:rgb(89.0625%,0%,13.330078%);fill-opacity:1;" d="M 423.300781 62.328125 L 452.425781 62.328125 L 452.425781 70.128906 L 405.746094 70.128906 L 405.746094 22.585938 L 452.425781 22.585938 L 452.425781 30.386719 L 423.300781 30.386719 L 423.300781 42.476563 L 452.425781 42.476563 L 452.425781 50.28125 L 423.300781 50.28125 Z M 423.300781 62.328125 "/>
</g>
<path style=" stroke:none;fill-rule:evenodd;fill:rgb(89.0625%,0%,13.330078%);fill-opacity:1;" d="M 374.097656 28.058594 C 377.957031 28.058594 381.898438 30.175781 381.898438 34.484375 C 381.898438 38.789063 378.410156 42.28125 374.097656 42.28125 L 370.292969 42.28125 L 370.292969 28.058594 Z M 399.15625 57.855469 L 399.15625 58.246094 C 399.15625 58.117188 399.160156 57.988281 399.15625 57.855469 Z M 399.15625 58.246094 L 399.15625 70.128906 L 381.890625 70.128906 L 381.890625 58.628906 C 381.898438 58.503906 381.898438 58.375 381.898438 58.246094 C 381.898438 53.941406 378.402344 50.449219 374.097656 50.449219 L 370.292969 50.449219 L 370.292969 70.128906 L 352.445313 70.132813 L 352.445313 22.601563 L 387.273438 22.601563 C 393.835938 22.601563 399.15625 27.921875 399.15625 34.484375 C 399.15625 41.042969 393.835938 46.367188 387.273438 46.367188 C 393.703125 46.367188 398.949219 51.476563 399.15625 57.855469 C 399.160156 57.988281 399.15625 58.117188 399.15625 58.246094 Z M 399.15625 58.246094 "/>
<g clip-path="url(#clip2)" clip-rule="nonzero">
<path style=" stroke:none;fill-rule:evenodd;fill:rgb(89.0625%,0%,13.330078%);fill-opacity:1;" d="M 142.261719 111.753906 C 142.261719 108.667969 141.429688 106.117188 139.566406 104.355469 C 138.097656 102.980469 136.085938 102.097656 132.902344 101.660156 L 128.785156 101.070313 C 127.363281 100.875 126.238281 100.335938 125.550781 99.699219 C 124.816406 99.011719 124.523438 98.082031 124.523438 97.199219 C 124.523438 94.796875 126.285156 92.789063 129.914063 92.789063 C 132.214844 92.789063 134.863281 93.082031 137.066406 95.191406 L 141.378906 90.925781 C 138.390625 88.035156 134.914063 86.859375 130.109375 86.859375 C 122.5625 86.859375 117.957031 91.222656 117.957031 97.445313 C 117.957031 100.382813 118.789063 102.636719 120.457031 104.304688 C 122.023438 105.824219 124.230469 106.753906 127.21875 107.195313 L 131.433594 107.785156 C 133.050781 108.027344 133.835938 108.371094 134.519531 109.007813 C 135.253906 109.695313 135.597656 110.722656 135.597656 111.949219 C 135.597656 114.742188 133.441406 116.261719 129.421875 116.261719 C 126.1875 116.261719 123.199219 115.527344 120.996094 113.320313 L 116.585938 117.730469 C 120.015625 121.210938 124.03125 122.339844 129.324219 122.339844 C 136.625 122.339844 142.261719 118.515625 142.261719 111.753906 Z M 142.261719 111.753906 "/>
</g>
<g clip-path="url(#clip3)" clip-rule="nonzero">
<path style=" stroke:none;fill-rule:evenodd;fill:rgb(89.0625%,0%,13.330078%);fill-opacity:1;" d="M 171.65625 122.042969 L 171.65625 115.96875 L 155.488281 115.96875 L 155.488281 107.488281 L 169.257813 107.488281 L 169.257813 101.414063 L 155.488281 101.414063 L 155.488281 93.230469 L 171.65625 93.230469 L 171.65625 87.152344 L 148.675781 87.152344 L 148.675781 122.042969 Z M 171.65625 122.042969 "/>
</g>
<g clip-path="url(#clip4)" clip-rule="nonzero">
<path style=" stroke:none;fill-rule:evenodd;fill:rgb(89.0625%,0%,13.330078%);fill-opacity:1;" d="M 203.167969 107.734375 L 203.167969 102.636719 L 189.988281 102.636719 L 189.988281 108.324219 L 196.40625 108.324219 L 196.40625 109.644531 C 196.40625 111.460938 195.964844 113.027344 194.839844 114.300781 C 193.710938 115.527344 192.046875 116.261719 189.988281 116.261719 C 188.125 116.261719 186.605469 115.574219 185.625 114.449219 C 184.304688 112.976563 183.960938 111.3125 183.960938 104.597656 C 183.960938 97.886719 184.304688 96.269531 185.625 94.796875 C 186.605469 93.671875 188.125 92.9375 189.988281 92.9375 C 193.464844 92.9375 195.476563 94.75 196.257813 98.03125 L 203.121094 98.03125 C 202.1875 92.152344 198.070313 86.859375 189.988281 86.859375 C 186.066406 86.859375 183.027344 88.230469 180.578125 90.683594 C 177.050781 94.210938 177.148438 98.570313 177.148438 104.597656 C 177.148438 110.625 177.050781 114.988281 180.578125 118.515625 C 183.027344 120.964844 186.164063 122.339844 189.988281 122.339844 C 193.710938 122.339844 197.042969 121.257813 199.835938 118.367188 C 202.289063 115.820313 203.167969 112.78125 203.167969 107.734375 Z M 203.167969 107.734375 "/>
</g>
<g clip-path="url(#clip5)" clip-rule="nonzero">
<path style=" stroke:none;fill-rule:evenodd;fill:rgb(89.0625%,0%,13.330078%);fill-opacity:1;" d="M 235.21875 110.085938 L 235.21875 87.152344 L 228.457031 87.152344 L 228.457031 109.84375 C 228.457031 113.859375 226.054688 116.261719 222.378906 116.261719 C 218.703125 116.261719 216.351563 113.859375 216.351563 109.84375 L 216.351563 87.152344 L 209.542969 87.152344 L 209.542969 110.085938 C 209.542969 117.484375 215.226563 122.339844 222.378906 122.339844 C 229.535156 122.339844 235.21875 117.484375 235.21875 110.085938 Z M 235.21875 110.085938 "/>
</g>
<g clip-path="url(#clip6)" clip-rule="nonzero">
<path style=" stroke:none;fill-rule:evenodd;fill:rgb(89.0625%,0%,13.330078%);fill-opacity:1;" d="M 269.226563 122.042969 L 261.4375 107 C 264.816406 105.773438 267.808594 102.738281 267.808594 97.835938 C 267.808594 92.003906 263.59375 87.152344 256.488281 87.152344 L 242.816406 87.152344 L 242.816406 122.042969 L 249.628906 122.042969 L 249.628906 108.128906 L 254.527344 108.128906 L 261.339844 122.042969 Z M 260.996094 97.835938 C 260.996094 100.53125 259.035156 102.441406 256.046875 102.441406 L 249.628906 102.441406 L 249.628906 93.230469 L 256.046875 93.230469 C 259.035156 93.230469 260.996094 95.140625 260.996094 97.835938 Z M 260.996094 97.835938 "/>
</g>
<g clip-path="url(#clip7)" clip-rule="nonzero">
<path style=" stroke:none;fill-rule:evenodd;fill:rgb(89.0625%,0%,13.330078%);fill-opacity:1;" d="M 299.457031 104.597656 C 299.457031 98.570313 299.507813 94.210938 295.980469 90.683594 C 293.527344 88.230469 290.539063 86.859375 286.570313 86.859375 C 282.601563 86.859375 279.5625 88.230469 277.113281 90.683594 C 273.585938 94.210938 273.683594 98.570313 273.683594 104.597656 C 273.683594 110.625 273.585938 114.988281 277.113281 118.515625 C 279.5625 120.964844 282.601563 122.339844 286.570313 122.339844 C 290.539063 122.339844 293.527344 120.964844 295.980469 118.515625 C 299.507813 114.988281 299.457031 110.625 299.457031 104.597656 Z M 292.648438 104.597656 C 292.648438 111.3125 292.253906 112.929688 290.929688 114.398438 C 289.953125 115.527344 288.433594 116.261719 286.570313 116.261719 C 284.707031 116.261719 283.140625 115.527344 282.160156 114.398438 C 280.835938 112.929688 280.492188 111.3125 280.492188 104.597656 C 280.492188 97.886719 280.835938 96.269531 282.160156 94.796875 C 283.140625 93.671875 284.707031 92.9375 286.570313 92.9375 C 288.433594 92.9375 289.953125 93.671875 290.929688 94.796875 C 292.253906 96.269531 292.648438 97.886719 292.648438 104.597656 Z M 292.648438 104.597656 "/>
</g>
<g clip-path="url(#clip8)" clip-rule="nonzero">
<path style=" stroke:none;fill-rule:evenodd;fill:rgb(89.0625%,0%,13.330078%);fill-opacity:1;" d="M 328.945313 111.753906 C 328.945313 108.667969 328.113281 106.117188 326.253906 104.355469 C 324.78125 102.980469 322.773438 102.097656 319.585938 101.660156 L 315.472656 101.070313 C 314.050781 100.875 312.921875 100.335938 312.238281 99.699219 C 311.5 99.011719 311.207031 98.082031 311.207031 97.199219 C 311.207031 94.796875 312.972656 92.789063 316.597656 92.789063 C 318.902344 92.789063 321.546875 93.082031 323.753906 95.191406 L 328.066406 90.925781 C 325.074219 88.035156 321.597656 86.859375 316.792969 86.859375 C 309.25 86.859375 304.640625 91.222656 304.640625 97.445313 C 304.640625 100.382813 305.476563 102.636719 307.140625 104.304688 C 308.707031 105.824219 310.914063 106.753906 313.902344 107.195313 L 318.117188 107.785156 C 319.734375 108.027344 320.519531 108.371094 321.203125 109.007813 C 321.941406 109.695313 322.28125 110.722656 322.28125 111.949219 C 322.28125 114.742188 320.128906 116.261719 316.109375 116.261719 C 312.875 116.261719 309.886719 115.527344 307.679688 113.320313 L 303.269531 117.730469 C 306.699219 121.210938 310.71875 122.339844 316.011719 122.339844 C 323.3125 122.339844 328.945313 118.515625 328.945313 111.753906 Z M 328.945313 111.753906 "/>
</g>
</g>
</svg>
