<?xml version="1.0" encoding="UTF-8"?>
<svg xmlns="http://www.w3.org/2000/svg" xmlns:xlink="http://www.w3.org/1999/xlink" width="283.46pt" height="100.48pt" viewBox="0 0 283.46 100.48" version="1.1">
<defs>
<clipPath id="clip1">
  <path d="M 112 86 L 120 86 L 120 100.480469 L 112 100.480469 Z M 112 86 "/>
</clipPath>
<clipPath id="clip2">
  <path d="M 121 90 L 130 90 L 130 100.480469 L 121 100.480469 Z M 121 90 "/>
</clipPath>
<clipPath id="clip3">
  <path d="M 131 86 L 134 86 L 134 100.480469 L 131 100.480469 Z M 131 86 "/>
</clipPath>
<clipPath id="clip4">
  <path d="M 136 90 L 145 90 L 145 100.480469 L 136 100.480469 Z M 136 90 "/>
</clipPath>
<clipPath id="clip5">
  <path d="M 146 86 L 156 86 L 156 100.480469 L 146 100.480469 Z M 146 86 "/>
</clipPath>
<clipPath id="clip6">
  <path d="M 161 90 L 170 90 L 170 100.480469 L 161 100.480469 Z M 161 90 "/>
</clipPath>
<clipPath id="clip7">
  <path d="M 174 88 L 181 88 L 181 100.480469 L 174 100.480469 Z M 174 88 "/>
</clipPath>
<clipPath id="clip8">
  <path d="M 181 90 L 191 90 L 191 100.480469 L 181 100.480469 Z M 181 90 "/>
</clipPath>
<clipPath id="clip9">
  <path d="M 192 86 L 202 86 L 202 100.480469 L 192 100.480469 Z M 192 86 "/>
</clipPath>
<clipPath id="clip10">
  <path d="M 203 90 L 213 90 L 213 100.480469 L 203 100.480469 Z M 203 90 "/>
</clipPath>
<clipPath id="clip11">
  <path d="M 222 87 L 237 87 L 237 100.480469 L 222 100.480469 Z M 222 87 "/>
</clipPath>
<clipPath id="clip12">
  <path d="M 238 86 L 247 86 L 247 100.480469 L 238 100.480469 Z M 238 86 "/>
</clipPath>
<clipPath id="clip13">
  <path d="M 247 90 L 256 90 L 256 100.480469 L 247 100.480469 Z M 247 90 "/>
</clipPath>
<clipPath id="clip14">
  <path d="M 257 87 L 260 87 L 260 100.480469 L 257 100.480469 Z M 257 87 "/>
</clipPath>
<clipPath id="clip15">
  <path d="M 261 90 L 269 90 L 269 100.480469 L 261 100.480469 Z M 261 90 "/>
</clipPath>
<clipPath id="clip16">
  <path d="M 269 90 L 280 90 L 280 100.480469 L 269 100.480469 Z M 269 90 "/>
</clipPath>
<clipPath id="clip17">
  <path d="M 274 35 L 283.460938 35 L 283.460938 45 L 274 45 Z M 274 35 "/>
</clipPath>
</defs>
<g id="surface1">
<path style=" stroke:none;fill-rule:evenodd;fill:rgb(33.299255%,53.69873%,24.699402%);fill-opacity:1;" d="M 131.378906 61.042969 L 141.179688 45.277344 L 150.324219 61.042969 Z M 143.734375 39.847656 L 138.621094 39.847656 L 116.890625 76.390625 L 122.855469 76.390625 L 127.542969 68.292969 L 153.964844 68.292969 L 159.433594 76.390625 L 165.472656 76.390625 "/>
<path style=" stroke:none;fill-rule:evenodd;fill:rgb(33.299255%,53.69873%,24.699402%);fill-opacity:1;" d="M 173.144531 71.703125 L 173.144531 43.578125 C 173.144531 43.578125 196.578125 39.730469 196.578125 58.0625 C 196.578125 58.0625 196.578125 78.519531 173.144531 71.703125 M 202.121094 58.121094 C 200.414063 31.75 168.453125 39.847656 168.453125 39.847656 L 168.453125 76.386719 C 203.828125 82.78125 202.121094 58.121094 202.121094 58.121094 "/>
<path style=" stroke:none;fill-rule:evenodd;fill:rgb(33.299255%,53.69873%,24.699402%);fill-opacity:1;" d="M 210.21875 54.15625 L 210.21875 43.148438 L 221.296875 43.148438 C 221.296875 43.148438 227.988281 45.171875 224.777344 51.390625 C 224.035156 52.828125 222.871094 53.175781 221.296875 54.15625 Z M 220.871094 58.121094 C 229.820313 59.023438 231.097656 50.394531 231.097656 50.394531 C 231.953125 38.03125 220.871094 38.675781 220.871094 38.675781 L 204.253906 38.675781 L 204.253906 77.445313 L 209.789063 77.445313 L 210.21875 61.042969 L 216.183594 61.042969 L 226.441406 77.445313 L 233.65625 77.445313 "/>
<path style=" stroke:none;fill-rule:evenodd;fill:rgb(33.299255%,53.69873%,24.699402%);fill-opacity:1;" d="M 254.964844 73.40625 C 246.484375 73.40625 239.617188 66.539063 239.617188 58.0625 C 239.617188 49.585938 246.484375 42.714844 254.964844 42.714844 C 263.4375 42.714844 270.308594 49.585938 270.308594 58.0625 C 270.308594 66.539063 263.4375 73.40625 254.964844 73.40625 M 254.964844 37.601563 C 242.957031 37.601563 233.226563 46.761719 233.226563 58.0625 C 233.226563 69.359375 242.957031 78.519531 254.964844 78.519531 C 266.96875 78.519531 276.695313 69.359375 276.695313 58.0625 C 276.695313 46.761719 266.96875 37.601563 254.964844 37.601563 "/>
<path style=" stroke:none;fill-rule:evenodd;fill:rgb(33.299255%,53.69873%,24.699402%);fill-opacity:1;" d="M 85.777344 77.335938 L 104.882813 77.335938 L 86.203125 49.117188 "/>
<path style=" stroke:none;fill-rule:nonzero;fill:rgb(63.09967%,73.699951%,54.899597%);fill-opacity:1;" d="M 9.589844 61.910156 L 0 78.519531 L 9.589844 95.128906 L 28.765625 95.128906 L 34.785156 84.707031 L 22.066406 61.910156 "/>
<path style=" stroke:none;fill-rule:nonzero;fill:rgb(48.999023%,64.698792%,38.398743%);fill-opacity:1;" d="M 46.996094 38.667969 L 48.824219 35.464844 L 35.855469 35.464844 L 21.582031 61.042969 L 22.066406 61.910156 L 28.765625 61.910156 L 38.355469 78.519531 L 34.785156 84.707031 L 35.855469 86.625 L 64.410156 86.625 L 69.59375 77.335938 L 69.046875 77.335938 "/>
<path style=" stroke:none;fill-rule:nonzero;fill:rgb(63.09967%,73.699951%,54.899597%);fill-opacity:1;" d="M 28.765625 61.910156 L 22.066406 61.910156 L 34.785156 84.707031 L 38.355469 78.519531 Z M 28.765625 61.910156 "/>
<path style=" stroke:none;fill-rule:nonzero;fill:rgb(37.298584%,56.098938%,24.299622%);fill-opacity:1;" d="M 28.765625 61.910156 L 22.066406 61.910156 L 34.785156 84.707031 L 38.355469 78.519531 Z M 28.765625 61.910156 "/>
<path style=" stroke:none;fill-rule:nonzero;fill:rgb(33.299255%,53.29895%,24.299622%);fill-opacity:1;" d="M 135.210938 38.667969 L 113.160156 0 L 69.046875 0 L 48.820313 35.464844 L 64.410156 35.464844 L 78.6875 61.042969 L 69.59375 77.335938 L 78.960938 77.335938 L 78.960938 37.601563 L 88.335938 37.601563 L 107.511719 66.589844 L 107.511719 37.601563 L 114.328125 37.601563 L 114.328125 75.289063 "/>
<path style=" stroke:none;fill-rule:nonzero;fill:rgb(48.999023%,64.698792%,38.398743%);fill-opacity:1;" d="M 64.410156 35.464844 L 48.824219 35.464844 L 46.996094 38.667969 L 69.046875 77.335938 L 69.59375 77.335938 L 78.6875 61.042969 "/>
<path style=" stroke:none;fill-rule:nonzero;fill:rgb(28.599548%,49.398804%,22.698975%);fill-opacity:1;" d="M 64.410156 35.464844 L 48.824219 35.464844 L 46.996094 38.667969 L 69.046875 77.335938 L 69.59375 77.335938 L 78.6875 61.042969 "/>
<g clip-path="url(#clip1)" clip-rule="nonzero">
<path style=" stroke:none;fill-rule:nonzero;fill:rgb(33.299255%,53.69873%,24.699402%);fill-opacity:1;" d="M 112.484375 98.195313 C 113.246094 98.683594 114.339844 99.054688 115.511719 99.054688 C 117.25 99.054688 118.265625 98.136719 118.265625 96.808594 C 118.265625 95.597656 117.5625 94.875 115.785156 94.210938 C 113.636719 93.429688 112.308594 92.296875 112.308594 90.460938 C 112.308594 88.410156 114.007813 86.886719 116.566406 86.886719 C 117.894531 86.886719 118.890625 87.199219 119.453125 87.53125 L 118.988281 88.917969 C 118.574219 88.664063 117.699219 88.292969 116.507813 88.292969 C 114.710938 88.292969 114.027344 89.367188 114.027344 90.265625 C 114.027344 91.496094 114.828125 92.101563 116.644531 92.804688 C 118.867188 93.664063 119.984375 94.738281 119.984375 96.671875 C 119.984375 98.703125 118.496094 100.480469 115.394531 100.480469 C 114.125 100.480469 112.738281 100.089844 112.035156 99.621094 "/>
</g>
<g clip-path="url(#clip2)" clip-rule="nonzero">
<path style=" stroke:none;fill-rule:nonzero;fill:rgb(33.299255%,53.69873%,24.699402%);fill-opacity:1;" d="M 127.304688 95.441406 C 125.429688 95.402344 123.300781 95.734375 123.300781 97.570313 C 123.300781 98.703125 124.042969 99.210938 124.902344 99.210938 C 126.152344 99.210938 126.953125 98.429688 127.226563 97.628906 C 127.285156 97.433594 127.304688 97.238281 127.304688 97.082031 Z M 128.964844 98 C 128.964844 98.820313 129 99.621094 129.101563 100.265625 L 127.554688 100.265625 L 127.421875 99.074219 L 127.363281 99.074219 C 126.835938 99.816406 125.820313 100.480469 124.472656 100.480469 C 122.558594 100.480469 121.582031 99.132813 121.582031 97.765625 C 121.582031 95.480469 123.613281 94.230469 127.261719 94.25 L 127.261719 94.054688 C 127.261719 93.292969 127.050781 91.867188 125.117188 91.886719 C 124.21875 91.886719 123.300781 92.140625 122.636719 92.589844 L 122.246094 91.4375 C 123.027344 90.949219 124.179688 90.617188 125.371094 90.617188 C 128.261719 90.617188 128.964844 92.589844 128.964844 94.464844 "/>
</g>
<g clip-path="url(#clip3)" clip-rule="nonzero">
<path style=" stroke:none;fill-rule:nonzero;fill:rgb(33.299255%,53.69873%,24.699402%);fill-opacity:1;" d="M 131.734375 100.265625 L 133.457031 100.265625 L 133.457031 86.398438 L 131.734375 86.398438 Z M 131.734375 100.265625 "/>
</g>
<g clip-path="url(#clip4)" clip-rule="nonzero">
<path style=" stroke:none;fill-rule:nonzero;fill:rgb(33.299255%,53.69873%,24.699402%);fill-opacity:1;" d="M 144.25 97.667969 C 144.25 98.664063 144.269531 99.523438 144.328125 100.265625 L 142.808594 100.265625 L 142.710938 98.722656 L 142.671875 98.722656 C 142.238281 99.484375 141.226563 100.480469 139.546875 100.480469 C 138.0625 100.480469 136.28125 99.640625 136.28125 96.339844 L 136.28125 90.8125 L 138.003906 90.8125 L 138.003906 96.027344 C 138.003906 97.824219 138.566406 99.054688 140.109375 99.054688 C 141.265625 99.054688 142.0625 98.253906 142.378906 97.472656 C 142.476563 97.238281 142.53125 96.925781 142.53125 96.59375 L 142.53125 90.8125 L 144.25 90.8125 "/>
</g>
<g clip-path="url(#clip5)" clip-rule="nonzero">
<path style=" stroke:none;fill-rule:nonzero;fill:rgb(33.299255%,53.69873%,24.699402%);fill-opacity:1;" d="M 153.546875 94.660156 C 153.546875 94.445313 153.523438 94.152344 153.46875 93.9375 C 153.214844 92.863281 152.273438 91.964844 150.984375 91.964844 C 149.210938 91.964844 148.152344 93.527344 148.152344 95.597656 C 148.152344 97.511719 149.109375 99.09375 150.945313 99.09375 C 152.101563 99.09375 153.152344 98.3125 153.46875 97.042969 C 153.523438 96.808594 153.546875 96.574219 153.546875 96.300781 Z M 155.242188 86.398438 L 155.242188 97.824219 C 155.242188 98.664063 155.28125 99.621094 155.320313 100.265625 L 153.800781 100.265625 L 153.722656 98.625 L 153.660156 98.625 C 153.152344 99.679688 152.023438 100.480469 150.480469 100.480469 C 148.191406 100.480469 146.417969 98.546875 146.417969 95.675781 C 146.398438 92.53125 148.367188 90.617188 150.652344 90.617188 C 152.117188 90.617188 153.074219 91.300781 153.507813 92.042969 L 153.546875 92.042969 L 153.546875 86.398438 "/>
</g>
<g clip-path="url(#clip6)" clip-rule="nonzero">
<path style=" stroke:none;fill-rule:nonzero;fill:rgb(33.299255%,53.69873%,24.699402%);fill-opacity:1;" d="M 167.230469 95.441406 C 165.355469 95.402344 163.226563 95.734375 163.226563 97.570313 C 163.226563 98.703125 163.96875 99.210938 164.828125 99.210938 C 166.078125 99.210938 166.878906 98.429688 167.152344 97.628906 C 167.210938 97.433594 167.230469 97.238281 167.230469 97.082031 Z M 168.890625 98 C 168.890625 98.820313 168.929688 99.621094 169.027344 100.265625 L 167.484375 100.265625 L 167.347656 99.074219 L 167.289063 99.074219 C 166.761719 99.816406 165.746094 100.480469 164.398438 100.480469 C 162.484375 100.480469 161.507813 99.132813 161.507813 97.765625 C 161.507813 95.480469 163.539063 94.230469 167.191406 94.25 L 167.191406 94.054688 C 167.191406 93.292969 166.976563 91.867188 165.042969 91.886719 C 164.144531 91.886719 163.226563 92.140625 162.5625 92.589844 L 162.171875 91.4375 C 162.953125 90.949219 164.105469 90.617188 165.296875 90.617188 C 168.1875 90.617188 168.890625 92.589844 168.890625 94.464844 "/>
</g>
<g clip-path="url(#clip7)" clip-rule="nonzero">
<path style=" stroke:none;fill-rule:nonzero;fill:rgb(33.299255%,53.69873%,24.699402%);fill-opacity:1;" d="M 177.867188 88.546875 L 177.867188 90.8125 L 180.328125 90.8125 L 180.328125 92.121094 L 177.867188 92.121094 L 177.867188 97.21875 C 177.867188 98.390625 178.199219 99.054688 179.15625 99.054688 C 179.628906 99.054688 179.898438 99.015625 180.152344 98.9375 L 180.230469 100.246094 C 179.898438 100.363281 179.371094 100.480469 178.710938 100.480469 C 177.90625 100.480469 177.265625 100.207031 176.855469 99.757813 C 176.386719 99.230469 176.1875 98.390625 176.1875 97.277344 L 176.1875 92.121094 L 174.726563 92.121094 L 174.726563 90.8125 L 176.1875 90.8125 L 176.1875 89.054688 "/>
</g>
<g clip-path="url(#clip8)" clip-rule="nonzero">
<path style=" stroke:none;fill-rule:nonzero;fill:rgb(33.299255%,53.69873%,24.699402%);fill-opacity:1;" d="M 183.21875 95.558594 C 183.21875 97.628906 184.390625 99.191406 186.070313 99.191406 C 187.710938 99.191406 188.941406 97.648438 188.941406 95.519531 C 188.941406 93.917969 188.140625 91.90625 186.109375 91.90625 C 184.097656 91.90625 183.21875 93.78125 183.21875 95.558594 M 190.695313 95.460938 C 190.695313 98.957031 188.257813 100.480469 185.992188 100.480469 C 183.453125 100.480469 181.464844 98.605469 181.464844 95.617188 C 181.464844 92.472656 183.550781 90.617188 186.148438 90.617188 C 188.863281 90.617188 190.695313 92.589844 190.695313 95.460938 "/>
</g>
<g clip-path="url(#clip9)" clip-rule="nonzero">
<path style=" stroke:none;fill-rule:nonzero;fill:rgb(33.299255%,53.69873%,24.699402%);fill-opacity:1;" d="M 199.308594 94.660156 C 199.308594 94.445313 199.289063 94.152344 199.230469 93.9375 C 198.976563 92.863281 198.039063 91.964844 196.75 91.964844 C 194.972656 91.964844 193.921875 93.527344 193.921875 95.597656 C 193.921875 97.511719 194.875 99.09375 196.710938 99.09375 C 197.863281 99.09375 198.917969 98.3125 199.230469 97.042969 C 199.289063 96.808594 199.308594 96.574219 199.308594 96.300781 Z M 201.007813 86.398438 L 201.007813 97.824219 C 201.007813 98.664063 201.046875 99.621094 201.085938 100.265625 L 199.5625 100.265625 L 199.484375 98.625 L 199.425781 98.625 C 198.917969 99.679688 197.785156 100.480469 196.242188 100.480469 C 193.957031 100.480469 192.183594 98.546875 192.183594 95.675781 C 192.164063 92.53125 194.136719 90.617188 196.417969 90.617188 C 197.882813 90.617188 198.839844 91.300781 199.269531 92.042969 L 199.308594 92.042969 L 199.308594 86.398438 "/>
</g>
<g clip-path="url(#clip10)" clip-rule="nonzero">
<path style=" stroke:none;fill-rule:nonzero;fill:rgb(33.299255%,53.69873%,24.699402%);fill-opacity:1;" d="M 204.949219 95.558594 C 204.949219 97.628906 206.121094 99.191406 207.800781 99.191406 C 209.441406 99.191406 210.667969 97.648438 210.667969 95.519531 C 210.667969 93.917969 209.871094 91.90625 207.839844 91.90625 C 205.828125 91.90625 204.949219 93.78125 204.949219 95.558594 M 212.425781 95.460938 C 212.425781 98.957031 209.988281 100.480469 207.722656 100.480469 C 205.183594 100.480469 203.191406 98.605469 203.191406 95.617188 C 203.191406 92.472656 205.28125 90.617188 207.878906 90.617188 C 210.589844 90.617188 212.425781 92.589844 212.425781 95.460938 "/>
</g>
<g clip-path="url(#clip11)" clip-rule="nonzero">
<path style=" stroke:none;fill-rule:nonzero;fill:rgb(33.299255%,53.69873%,24.699402%);fill-opacity:1;" d="M 234.019531 94.484375 C 233.921875 92.648438 233.808594 90.421875 233.808594 88.800781 L 233.769531 88.800781 C 233.296875 90.324219 232.769531 91.984375 232.105469 93.800781 L 229.785156 100.1875 L 228.496094 100.1875 L 226.347656 93.917969 C 225.722656 92.042969 225.214844 90.363281 224.847656 88.800781 L 224.804688 88.800781 C 224.765625 90.441406 224.667969 92.628906 224.550781 94.621094 L 224.203125 100.265625 L 222.578125 100.265625 L 223.496094 87.101563 L 225.664063 87.101563 L 227.910156 93.46875 C 228.457031 95.089844 228.886719 96.535156 229.238281 97.902344 L 229.277344 97.902344 C 229.628906 96.574219 230.097656 95.128906 230.683594 93.46875 L 233.023438 87.101563 L 235.191406 87.101563 L 236.015625 100.265625 L 234.335938 100.265625 "/>
</g>
<g clip-path="url(#clip12)" clip-rule="nonzero">
<path style=" stroke:none;fill-rule:nonzero;fill:rgb(33.299255%,53.69873%,24.699402%);fill-opacity:1;" d="M 245.070313 86.730469 L 242.6875 89.523438 L 241.476563 89.523438 L 243.195313 86.730469 Z M 244.679688 94.621094 C 244.699219 93.546875 244.230469 91.847656 242.300781 91.847656 C 240.539063 91.847656 239.800781 93.429688 239.660156 94.621094 Z M 239.640625 95.851563 C 239.679688 98.175781 241.144531 99.132813 242.882813 99.132813 C 244.113281 99.132813 244.878906 98.917969 245.503906 98.644531 L 245.8125 99.875 C 245.210938 100.148438 244.152344 100.480469 242.648438 100.480469 C 239.738281 100.480469 238.003906 98.546875 238.003906 95.695313 C 238.003906 92.84375 239.679688 90.617188 242.433594 90.617188 C 245.539063 90.617188 246.339844 93.3125 246.339844 95.050781 C 246.339844 95.402344 246.320313 95.65625 246.28125 95.851563 "/>
</g>
<g clip-path="url(#clip13)" clip-rule="nonzero">
<path style=" stroke:none;fill-rule:nonzero;fill:rgb(33.299255%,53.69873%,24.699402%);fill-opacity:1;" d="M 249.210938 90.8125 L 250.558594 92.84375 C 250.929688 93.371094 251.21875 93.839844 251.535156 94.367188 L 251.570313 94.367188 C 251.882813 93.820313 252.195313 93.332031 252.527344 92.824219 L 253.835938 90.8125 L 255.710938 90.8125 L 252.488281 95.382813 L 255.789063 100.265625 L 253.855469 100.265625 L 252.449219 98.136719 C 252.078125 97.589844 251.765625 97.0625 251.433594 96.496094 L 251.394531 96.496094 C 251.082031 97.0625 250.773438 97.570313 250.402344 98.136719 L 249.035156 100.265625 L 247.140625 100.265625 L 250.5 95.441406 L 247.296875 90.8125 "/>
</g>
<g clip-path="url(#clip14)" clip-rule="nonzero">
<path style=" stroke:none;fill-rule:nonzero;fill:rgb(33.299255%,53.69873%,24.699402%);fill-opacity:1;" d="M 257.449219 90.8125 L 259.167969 90.8125 L 259.167969 100.265625 L 257.449219 100.265625 Z M 259.363281 88.15625 C 259.363281 88.742188 258.953125 89.210938 258.269531 89.210938 C 257.644531 89.210938 257.234375 88.742188 257.234375 88.15625 C 257.234375 87.570313 257.664063 87.082031 258.308594 87.082031 C 258.933594 87.082031 259.363281 87.550781 259.363281 88.15625 "/>
</g>
<g clip-path="url(#clip15)" clip-rule="nonzero">
<path style=" stroke:none;fill-rule:nonzero;fill:rgb(33.299255%,53.69873%,24.699402%);fill-opacity:1;" d="M 268.753906 99.933594 C 268.304688 100.148438 267.308594 100.480469 266.039063 100.480469 C 263.1875 100.480469 261.332031 98.546875 261.332031 95.65625 C 261.332031 92.746094 263.324219 90.617188 266.410156 90.617188 C 267.425781 90.617188 268.324219 90.871094 268.792969 91.125 L 268.402344 92.433594 C 267.992188 92.21875 267.347656 91.984375 266.410156 91.984375 C 264.242188 91.984375 263.070313 93.605469 263.070313 95.558594 C 263.070313 97.746094 264.476563 99.09375 266.351563 99.09375 C 267.328125 99.09375 267.972656 98.859375 268.460938 98.644531 "/>
</g>
<g clip-path="url(#clip16)" clip-rule="nonzero">
<path style=" stroke:none;fill-rule:nonzero;fill:rgb(33.299255%,53.69873%,24.699402%);fill-opacity:1;" d="M 271.722656 95.558594 C 271.722656 97.628906 272.894531 99.191406 274.574219 99.191406 C 276.214844 99.191406 277.445313 97.648438 277.445313 95.519531 C 277.445313 93.917969 276.644531 91.90625 274.613281 91.90625 C 272.601563 91.90625 271.722656 93.78125 271.722656 95.558594 M 279.199219 95.460938 C 279.199219 98.957031 276.757813 100.480469 274.492188 100.480469 C 271.953125 100.480469 269.964844 98.605469 269.964844 95.617188 C 269.964844 92.472656 272.054688 90.617188 274.652344 90.617188 C 277.367188 90.617188 279.199219 92.589844 279.199219 95.460938 "/>
</g>
<g clip-path="url(#clip17)" clip-rule="nonzero">
<path style=" stroke:none;fill-rule:nonzero;fill:rgb(33.299255%,53.69873%,24.699402%);fill-opacity:1;" d="M 278.09375 39.753906 L 278.597656 39.753906 C 279.183594 39.753906 279.65625 39.5625 279.65625 39.085938 C 279.65625 38.671875 279.347656 38.394531 278.679688 38.394531 C 278.402344 38.394531 278.207031 38.417969 278.09375 38.449219 Z M 278.070313 42.3125 L 277.011719 42.3125 L 277.011719 37.75 C 277.429688 37.695313 278.015625 37.617188 278.765625 37.617188 C 279.628906 37.617188 280.015625 37.75 280.320313 37.972656 C 280.601563 38.167969 280.796875 38.5 280.796875 38.949219 C 280.796875 39.503906 280.378906 39.867188 279.851563 40.035156 L 279.851563 40.089844 C 280.296875 40.230469 280.515625 40.589844 280.65625 41.203125 C 280.796875 41.898438 280.90625 42.148438 280.992188 42.3125 L 279.878906 42.3125 C 279.738281 42.148438 279.65625 41.757813 279.515625 41.203125 C 279.433594 40.726563 279.152344 40.507813 278.570313 40.507813 L 278.070313 40.507813 Z M 275.261719 39.945313 C 275.261719 41.976563 276.789063 43.589844 278.820313 43.589844 C 280.796875 43.617188 282.296875 41.976563 282.296875 39.976563 C 282.296875 37.949219 280.796875 36.308594 278.765625 36.308594 C 276.789063 36.308594 275.261719 37.949219 275.261719 39.945313 M 283.464844 39.945313 C 283.464844 42.511719 281.40625 44.535156 278.789063 44.535156 C 276.179688 44.535156 274.089844 42.511719 274.089844 39.945313 C 274.089844 37.394531 276.179688 35.390625 278.820313 35.390625 C 281.40625 35.390625 283.464844 37.394531 283.464844 39.945313 "/>
</g>
</g>
</svg>
