<svg xmlns="http://www.w3.org/2000/svg" xmlns:xlink="http://www.w3.org/1999/xlink" width="124" height="63" viewBox="0 0 124 63"><defs><clipPath id="a"><rect width="124" height="63" transform="translate(4796 1404)" fill="#fff" opacity="0.556"/></clipPath><radialGradient id="b" cx="0.784" cy="0.74" fx="0.7407112717628479" fy="0.742297351360321" r="0.388" gradientTransform="translate(0)" gradientUnits="objectBoundingBox"><stop offset="0" stop-color="#750404"/><stop offset="1" stop-color="red"/></radialGradient><radialGradient id="c" cx="0.5" cy="0.5" r="0.357" gradientTransform="translate(0)" gradientUnits="objectBoundingBox"><stop offset="0" stop-color="#fff"/><stop offset="1" stop-color="#fff" stop-opacity="0"/></radialGradient></defs><g transform="translate(-4796 -1404)" clip-path="url(#a)"><g transform="translate(-3965 -1076.743)"><g transform="translate(8815.342 2480.743)"><path d="M18.249,27.017A10.873,10.873,0,1,0,7.376,16.143,10.872,10.872,0,0,0,18.249,27.017" transform="translate(-7.376 -5.27)" fill="url(#b)"/><rect width="19.937" height="20.504" transform="translate(22.566 0.811)" fill="#039"/><path d="M126.641,7.064H102.326L114.48,27.8Z" transform="translate(-59.328 -6.252)" fill="#393"/><path d="M29.555,23.467a6.739,6.739,0,0,1-13.146-2.159A6.518,6.518,0,0,1,23,14.652a6.884,6.884,0,0,1,6.621,4.766H27.759a5.11,5.11,0,0,0-4.717-3.058,4.81,4.81,0,0,0-4.862,4.912,4.969,4.969,0,0,0,9.454,2.2Z" transform="translate(-12.319 -10.403)" fill="#fff"/><path d="M64.918,18.01V16.171h13V18.01H72.4V28.391h-1.84V18.01Z" transform="translate(-38.86 -11.235)" fill="#fff"/><path d="M115.314,15.39h-2.138l7.234,12.236,7.235-12.236h-2.139l-5.1,8.48Z" transform="translate(-65.265 -10.807)" fill="#fff"/><circle cx="4.439" cy="4.439" r="4.439" transform="translate(2.888 1.688)" fill="url(#c)"/></g><g transform="translate(8761 2504.677)"><path d="M7490.623-5716.174v-1.433h.49a3.279,3.279,0,0,0,2.5-.719,4.844,4.844,0,0,0,.632-2.963v-20.283a5.07,5.07,0,0,0-.591-3.015,3.456,3.456,0,0,0-2.54-.666h-.49v-1.429h20.231l.617,5.687h-1.762l-.075-.5c-.247-1.6-.722-2.589-1.41-2.937-.707-.355-2.626-.535-5.7-.535h-4.052v11.679h4.381a9.209,9.209,0,0,0,3.879-.505c.528-.325.793-1.1.793-2.293v-.452h1.8v7.934h-1.8v-.415a3.2,3.2,0,0,0-.677-2.3c-.247-.243-1.141-.535-4-.535h-4.381v10.706a2.54,2.54,0,0,0,1.556,2.533,15.35,15.35,0,0,0,5.72.737h.819a3.452,3.452,0,0,0,2.57-.845,5.865,5.865,0,0,0,1.209-3.061l.078-.464h1.758l-.569,6.083h-20.99Z" transform="translate(-7452.738 5754.242)"/><path d="M7572.464-5716.175h-1.452l-8.8-23.654-7.5,23.654h-1.489l-7.718-25.236a9.593,9.593,0,0,0-1.351-3,2.009,2.009,0,0,0-1.627-.846h-.408v-1.429h9.861v1.429h-.5a3.29,3.29,0,0,0-1.788.325,1.594,1.594,0,0,0-.408,1.295,8.1,8.1,0,0,0,.378,2.244l5.5,18,7.325-23.292h1.41l8.593,23.415,5.443-18.1a9.826,9.826,0,0,0,.449-2.548c0-.756-.733-1.2-2.181-1.316l-.479-.026v-1.422h7.6v1.429h-.445a1.834,1.834,0,0,0-1.541.812,10.8,10.8,0,0,0-1.3,3.079l-7.572,25.188Z" transform="translate(-7480.915 5754.242)"/><path d="M7641.746-5716.45a24.746,24.746,0,0,1-7.74-1.208l-.079-.03-.43-6.876h1.751l.078.416a8.063,8.063,0,0,0,2.368,4.624,6.66,6.66,0,0,0,4.587,1.616,6.025,6.025,0,0,0,4.287-1.7,5.438,5.438,0,0,0,1.788-4.077c0-2-1.564-4.078-4.643-6.187l-2.967-2.05a30.14,30.14,0,0,1-5.693-4.665,6.29,6.29,0,0,1-1.37-4.078,6.848,6.848,0,0,1,2.862-5.716,12.175,12.175,0,0,1,7.508-2.159,22.912,22.912,0,0,1,7.37,1.272l.075.026.677,5.9h-1.747l-.127-.4c-1.014-3.543-3.363-5.338-6.969-5.338a5.759,5.759,0,0,0-4.022,1.459,4.793,4.793,0,0,0-1.586,3.681c0,1.87,1.335,3.737,3.973,5.548l4.284,2.944a25.3,25.3,0,0,1,5.312,4.425,6.663,6.663,0,0,1,1.283,4.167,7.39,7.39,0,0,1-2.948,6.135,12.626,12.626,0,0,1-7.882,2.271" transform="translate(-7530.912 5755.259)"/><path d="M7415.987-5727.691q-.808-.91-.808-3.85v-23.635l24.319,29.86h1l.03-31.831c0-1.96.27-3.24.819-3.85s1.628-.909,3.363-.909h.472v-1.47h-12.218v1.47h.389c1.784,0,2.948.3,3.5.909s.823,1.889.823,3.85v22.659l-23.25-28.887h-7.467v1.47h.468c1.242,0,2.6.895,4.078,2.687l.655.812v26.867q0,2.941-.808,3.85c-.535.6-1.684.905-3.438.905h-.314v1.47h12.289v-1.47h-.464c-1.758,0-2.9-.3-3.441-.905" transform="translate(-7406.964 5763.376)"/></g></g></g></svg>