<svg xmlns="http://www.w3.org/2000/svg" xmlns:xlink="http://www.w3.org/1999/xlink" width="124" height="63" viewBox="0 0 124 63"><defs><clipPath id="a"><rect width="124" height="63" transform="translate(4885 1565)" fill="#fff" opacity="0.556"/></clipPath></defs><g transform="translate(-4885 -1565)" clip-path="url(#a)"><g transform="translate(5104.727 1276.825)"><g transform="translate(-219.727 313.175)"><path d="M-18.22,0l1.529,6.076h.028L-15.231,0h2.405l1.376,6.076h.028L-9.864,0h2.28l-2.7,11.373h-2.475l-1.571-6.062h-.028l-1.557,6.062h-2.475L-21.084,0ZM-4.876,11.373H-7.392V3.364h2.516Zm0-9.12H-7.392V0h2.516Zm3.35,1.112V4.518A3.37,3.37,0,0,1,.8,3.156,2.124,2.124,0,0,1,2.84,5.589v5.784H.323V6.3c0-.57-.111-1.154-.765-1.154-.375,0-.723.348-1.084.723v5.506H-4.042V3.364h2.517Zm7.643,0V4.518A3.37,3.37,0,0,1,8.439,3.156a2.124,2.124,0,0,1,2.044,2.433v5.784H7.967V6.3c0-.57-.111-1.154-.765-1.154-.375,0-.723.348-1.084.723v5.506H3.6V3.364H6.118Zm7.768,8.008H11.37V3.364h2.516v8.008Zm0-9.12H11.37V0h2.516V2.252Zm3.128,1.112v.82a3.422,3.422,0,0,1,2.141-1.029c1.849,0,2.683,2.169,2.683,4.06,0,2.086-.807,4.282-2.85,4.282A2.473,2.473,0,0,1,17.1,10.469v3.309H14.581V3.364h2.433ZM18.14,9.843c.82,0,1.071-1.14,1.071-2.586,0-.876-.056-2.35-1.126-2.35a1.348,1.348,0,0,0-.987.6V9.162c.292.361.556.681,1.043.681m7.977,0c.612,0,1.07-.5,1.362-1.224l1.724.487a3.651,3.651,0,0,1-3.559,2.475c-2.155,0-3.67-1.543-3.67-4.213,0-2.447,1.418-4.213,3.67-4.213,2.044,0,3.643,1.39,3.643,4.518V7.9H24.5a1.746,1.746,0,0,0,1.613,1.947M25.742,4.81c-.834,0-1.126.681-1.14,1.557h2.141c.028-.848-.306-1.557-1-1.557" transform="translate(21.084 0)"/></g><g transform="translate(-169.594 313.175)"><path d="M-43.429-30.692a1.569,1.569,0,0,1,.195.723c0,1.6-1.112,2.586-3.114,2.586h-.612c-.6,0-.653.167-.653.361,0,.306.153.334.626.389l1.363.1c1.515.125,3.323.473,3.323,2.336,0,1.154-1.112,2.586-4.31,2.586-2.058,0-3.643-.4-3.643-1.543,0-.82.709-1.2,1.293-1.39v-.028a1.352,1.352,0,0,1-1-1.293c0-.945,1.015-1.543,1.682-1.78l-.069-.028a2.31,2.31,0,0,1-1.488-2.183c0-1.1.987-2.5,3.128-2.5a3.914,3.914,0,0,1,2.7.82,2.323,2.323,0,0,1,1.78-.987v1.71c-.292-.195-.959-.306-1.2.125m-4.991,6.951c0,.4.278.681,1.933.681.862,0,2.016-.1,2.016-.612,0-.612-1.293-.681-2.544-.681-.876,0-1.4.069-1.4.612m1.891-4.894a1.127,1.127,0,0,0,1.043-1.223,1.069,1.069,0,0,0-1-1.14,1.141,1.141,0,0,0-1.1,1.154,1.133,1.133,0,0,0,1.057,1.209m14.941-6.882v2.044h-5.047v2.141h2.252v1.974h-2.252v5.214h-2.892V-35.516Z" transform="translate(50.255 35.516)"/></g><g transform="translate(-153.404 316.373)"><path d="M-16.01-1.061V.19h.028a3.351,3.351,0,0,1,2.655-1.418V1.386a2.318,2.318,0,0,0-1.5-.125,2.143,2.143,0,0,0-1.182.57V6.947h-2.517V-1.061Z" transform="translate(18.526 1.227)"/></g><g transform="translate(-148.373 313.175)"><path d="M-26.357-62.622c.612,0,1.071-.5,1.362-1.223l1.724.486a3.651,3.651,0,0,1-3.559,2.475c-2.155,0-3.67-1.543-3.67-4.213,0-2.447,1.418-4.213,3.67-4.213,2.044,0,3.643,1.39,3.643,4.519v.222H-27.97a1.746,1.746,0,0,0,1.613,1.946m-.375-5.033c-.834,0-1.126.681-1.14,1.557h2.141c.028-.848-.306-1.557-1-1.557m7.951,5.033c.612,0,1.071-.5,1.362-1.223l1.724.486a3.651,3.651,0,0,1-3.559,2.475c-2.155,0-3.67-1.543-3.67-4.213,0-2.447,1.418-4.213,3.67-4.213,2.044,0,3.643,1.39,3.643,4.519v.222h-4.783a1.746,1.746,0,0,0,1.613,1.946m-.375-5.033c-.834,0-1.126.681-1.14,1.557h2.141c.028-.848-.306-1.557-1-1.557m11.022-4.81a3.261,3.261,0,0,1,3.629,3.5c0,1.738-.89,3.476-4.171,3.476H-10.3v4.393H-13.2V-72.465Zm-.918,4.81c.918.028,1.488-.417,1.488-1.293,0-1.084-.654-1.348-1.4-1.348H-10.3v2.641Zm7.3-1.446v1.251h.028A3.352,3.352,0,0,1,.928-69.267v2.614a2.317,2.317,0,0,0-1.5-.125,2.142,2.142,0,0,0-1.182.57v5.116H-4.272V-69.1Z" transform="translate(30.5 72.465)"/></g><g transform="translate(-117.115 316.331)"><path d="M-26.357-42.544c.612,0,1.071-.5,1.362-1.223l1.724.486a3.651,3.651,0,0,1-3.559,2.475c-2.155,0-3.67-1.543-3.67-4.213,0-2.447,1.418-4.213,3.67-4.213,2.044,0,3.643,1.39,3.643,4.519v.222H-27.97a1.746,1.746,0,0,0,1.613,1.946m-.375-5.033c-.834,0-1.126.681-1.14,1.557h2.141c.028-.848-.306-1.557-1-1.557m7.242,5.116c.681,0,1.112-.278,1.112-.626,0-.278-.084-.528-1.432-.82a8.556,8.556,0,0,1-2.364-.918,2.424,2.424,0,0,1-.626-1.585,2.816,2.816,0,0,1,3.045-2.822,3.047,3.047,0,0,1,3.365,2.224l-1.7.334a1.745,1.745,0,0,0-1.529-.807c-.542,0-.959.139-.959.612,0,.334.25.514,1.112.7,1.223.236,3.378.987,3.378,2.558,0,1.668-1,2.808-3.657,2.808a3.266,3.266,0,0,1-3.364-2.1l1.835-.4a1.764,1.764,0,0,0,1.78.848" transform="translate(30.5 49.231)"/></g><g transform="translate(-102.702 316.331)"><path d="M-23-43.074c.681,0,1.112-.278,1.112-.626,0-.278-.083-.528-1.432-.82a8.546,8.546,0,0,1-2.364-.918,2.424,2.424,0,0,1-.626-1.585,2.816,2.816,0,0,1,3.045-2.822A3.047,3.047,0,0,1-19.9-47.621l-1.7.334a1.745,1.745,0,0,0-1.529-.806c-.542,0-.959.139-.959.612,0,.334.25.514,1.112.7,1.224.236,3.378.987,3.378,2.558,0,1.668-1,2.808-3.657,2.808a3.267,3.267,0,0,1-3.364-2.1l1.835-.4a1.764,1.764,0,0,0,1.78.848" transform="translate(26.611 49.845)"/></g><g transform="translate(-202.499 314.054)"><path d="M-92.9,321.155v-1.337h.812v.158h-.653v.414h.565v.158h-.565v.607Z" transform="translate(92.896 -319.794)" fill="#666"/><path d="M-85.8,320.353a.777.777,0,0,1,.161-.521.521.521,0,0,1,.415-.188.532.532,0,0,1,.3.088.56.56,0,0,1,.2.247.876.876,0,0,1,.07.359.861.861,0,0,1-.074.364.539.539,0,0,1-.209.243.551.551,0,0,1-.292.083.526.526,0,0,1-.3-.091.569.569,0,0,1-.2-.249A.825.825,0,0,1-85.8,320.353Zm.164,0a.573.573,0,0,0,.117.381.367.367,0,0,0,.293.139.367.367,0,0,0,.3-.14.61.61,0,0,0,.116-.4.752.752,0,0,0-.05-.285.414.414,0,0,0-.145-.189.365.365,0,0,0-.215-.067.386.386,0,0,0-.291.129A.618.618,0,0,0-85.638,320.355Z" transform="translate(86.765 -319.643)" fill="#666"/><path d="M-76.188,319.818h.159v.772a1.009,1.009,0,0,1-.041.32.383.383,0,0,1-.148.193.484.484,0,0,1-.281.074.53.53,0,0,1-.277-.065.359.359,0,0,1-.153-.187.983.983,0,0,1-.046-.335v-.772h.159v.771a.831.831,0,0,0,.029.257.24.24,0,0,0,.1.127.32.32,0,0,0,.174.045.311.311,0,0,0,.25-.088.552.552,0,0,0,.075-.34Z" transform="translate(79.138 -319.794)" fill="#666"/><path d="M-67.86,321.155v-1.337h.163l.632,1.05v-1.05h.153v1.337h-.163l-.632-1.051v1.051Z" transform="translate(71.261 -319.794)" fill="#666"/><path d="M-58.493,321.155v-1.337h.414a.908.908,0,0,1,.214.019.392.392,0,0,1,.176.1.548.548,0,0,1,.142.228.988.988,0,0,1,.047.318,1.03,1.03,0,0,1-.032.27.69.69,0,0,1-.082.195.463.463,0,0,1-.11.121.425.425,0,0,1-.144.067.744.744,0,0,1-.193.023Zm.159-.158h.257a.563.563,0,0,0,.187-.025.262.262,0,0,0,.108-.069.433.433,0,0,0,.088-.169.913.913,0,0,0,.032-.258.68.68,0,0,0-.062-.322.325.325,0,0,0-.151-.151.563.563,0,0,0-.206-.027h-.253Z" transform="translate(63.166 -319.794)" fill="#666"/><path d="M-49.942,321.155v-1.337h.87v.158h-.711v.409h.666v.157h-.666V321h.739v.158Z" transform="translate(55.777 -319.794)" fill="#666"/><path d="M-41.712,321.155v-1.337h.414a.908.908,0,0,1,.214.019.392.392,0,0,1,.176.1.548.548,0,0,1,.142.228.988.988,0,0,1,.047.318,1.03,1.03,0,0,1-.032.27.69.69,0,0,1-.082.195.463.463,0,0,1-.11.121.425.425,0,0,1-.144.067.744.744,0,0,1-.193.023Zm.159-.158h.257a.563.563,0,0,0,.187-.025A.262.262,0,0,0-41,320.9a.434.434,0,0,0,.088-.169.914.914,0,0,0,.032-.258.68.68,0,0,0-.062-.322.325.325,0,0,0-.151-.151.563.563,0,0,0-.206-.027h-.253Z" transform="translate(48.665 -319.794)" fill="#666"/><path d="M-29.163,321.155v-1.337H-29v1.337Z" transform="translate(37.82 -319.794)" fill="#666"/><path d="M-24.919,321.155v-1.337h.163l.632,1.05v-1.05h.153v1.337h-.163l-.632-1.051v1.051Z" transform="translate(34.153 -319.794)" fill="#666"/><path d="M-11.486,321.12h-.148v-1.046a.771.771,0,0,1-.14.113.953.953,0,0,1-.156.085v-.159a.888.888,0,0,0,.217-.157.609.609,0,0,0,.131-.179h.1Z" transform="translate(22.927 -319.759)" fill="#666"/><path d="M-6.1,320.395a.28.28,0,0,1-.136-.107.3.3,0,0,1-.044-.166.342.342,0,0,1,.094-.245.33.33,0,0,1,.251-.1.333.333,0,0,1,.254.1.347.347,0,0,1,.1.248.294.294,0,0,1-.044.162.279.279,0,0,1-.133.106.326.326,0,0,1,.169.13.384.384,0,0,1,.058.213.406.406,0,0,1-.109.288.375.375,0,0,1-.287.117.374.374,0,0,1-.287-.117.412.412,0,0,1-.109-.292.381.381,0,0,1,.06-.218A.3.3,0,0,1-6.1,320.395Zm-.03-.278a.221.221,0,0,0,.055.155.184.184,0,0,0,.143.06.181.181,0,0,0,.14-.06.209.209,0,0,0,.055-.146.217.217,0,0,0-.056-.152.182.182,0,0,0-.14-.062.184.184,0,0,0-.14.06A.2.2,0,0,0-6.128,320.117Zm-.048.617a.324.324,0,0,0,.03.136.225.225,0,0,0,.089.1.24.24,0,0,0,.127.036.226.226,0,0,0,.175-.076.275.275,0,0,0,.069-.192.279.279,0,0,0-.071-.2.231.231,0,0,0-.178-.078.222.222,0,0,0-.173.077A.277.277,0,0,0-6.176,320.734Z" transform="translate(18.087 -319.759)" fill="#666"/><path d="M.662,320.1v-.158h.779v.128a1.836,1.836,0,0,0-.228.361,2.339,2.339,0,0,0-.174.463,1.9,1.9,0,0,0-.057.367H.831a1.807,1.807,0,0,1,.056-.381,2.141,2.141,0,0,1,.153-.431,1.87,1.87,0,0,1,.212-.35Z" transform="translate(12.046 -319.904)" fill="#666"/><path d="M8.039,320.962v.158h-.8a.319.319,0,0,1,.017-.114.619.619,0,0,1,.1-.178,1.6,1.6,0,0,1,.193-.2,1.732,1.732,0,0,0,.265-.283.362.362,0,0,0,.069-.2.232.232,0,0,0-.063-.165.214.214,0,0,0-.164-.067.218.218,0,0,0-.171.071.287.287,0,0,0-.065.2l-.152-.017a.436.436,0,0,1,.117-.288.375.375,0,0,1,.273-.1.359.359,0,0,1,.274.107.37.37,0,0,1,.1.264.44.44,0,0,1-.03.158.623.623,0,0,1-.1.163,2.513,2.513,0,0,1-.228.235q-.133.124-.171.168a.539.539,0,0,0-.062.089Z" transform="translate(6.359 -319.759)" fill="#666"/></g></g></g></svg>