<svg xmlns="http://www.w3.org/2000/svg" xmlns:xlink="http://www.w3.org/1999/xlink" width="124" height="63" viewBox="0 0 124 63"><defs><clipPath id="a"><rect width="124" height="63" transform="translate(4893 1778)" fill="#fff" opacity="0.556"/></clipPath></defs><g transform="translate(-4893 -1778)" clip-path="url(#a)"><g transform="translate(4837 732)" style="isolation:isolate"><g transform="translate(56 1068)"><g transform="translate(0 0)"><path d="M8.746,18.73v.416h3.339V18.73c-.976,0-1.347-.821-1.044-2.1.448-1.921.816-3.627.849-3.806h2.927c.543,2.041.575,2.265,1.231,4.686.177.661.144,1.221-.383,1.221h-.448v.416h7.1V18.73h-.459c-.591,0-.959-.6-.959-2.162V7.045c2.511,4.821,3.8,7.2,6.489,12.321h.255c0-.941-.039-12.622-.039-13.161,0-1.5.571-2.2,1.547-2.2V3.6c-.273,0-1.112,0-1.753,0H25.609l.016.4c.9,0,1.4.683,1.4,2.2v7.5c-.783-1.5-4.67-8.809-5.278-9.988-.047-.08-.063-.12-.16-.12-.048,0-.721,0-1.441,0-.672,0-1.342,0-1.422,0V4a1,1,0,0,1,.963.649c.175.32.426.857.634,1.257V16.774c0,1.389-.365,1.847-.883,1.933-.018,0-.034,0-.051,0l-.02,0a1.061,1.061,0,0,1-.916-.8c-1.615-5.8-2.487-8.211-4.262-14.534h-.5c-.209.9-3.175,12.949-3.368,13.813C10.041,18.413,9.466,18.73,8.746,18.73ZM13.234,7.185l1.375,5.144H12.082ZM5.756,19.357h.459c.327-1.276,3.245-12.712,4.073-15.892C10.846,1.322,11.5.889,12.347.889V.437c-.328,0-1.255-.011-1.967-.011H8.42V.9c.078,0,.6-.012.654-.012.617,0,1.014.686.668,2.035C8.957,6.037,7.055,13.561,7.055,13.561S4.934,4.96,4.26,2.214C4.01,1.227,4.068.889,4.626.889H5.1V.437C4.767.437,3.562.426,2.561.426S.328.437,0,.437V.889H.718c.462,0,.616.41.924,1.662C2.373,5.513,5.448,18.057,5.756,19.357Zm94.454-10.7c-.4-.36-1.944-1.734-2.5-2.215a4.023,4.023,0,0,1-1.552-2.525C96.033,3.4,96,.623,98.349.623c1.349,0,2.516,1.554,3.267,4.493l.374-.011c-.154-2.456-.148-2.516-.3-4.925L101.34.171l-.054.278c-.02.121-.1.717-.348.717a.679.679,0,0,1-.458-.2,4.063,4.063,0,0,0-2.363-.9c-1.887,0-4.06,1.608-3.934,5.2a5.465,5.465,0,0,0,1.593,3.48c1.085,1.219,2.426,2.336,3.351,3.227a4.425,4.425,0,0,1,1.441,2.853c.207,1.412-.2,3.976-2.057,3.967-1.956-.009-3.315-1.961-4.111-5.556l-.374.044c0,.337.133,4.927.133,5.914l.386-.008c.251-1.153.444-1.418,1.121-.843a4.017,4.017,0,0,0,2.855,1.074c2.676,0,4.191-2.374,4.191-5.145A7.305,7.305,0,0,0,100.209,8.657Zm-63.046-4.4a3.548,3.548,0,0,0-2.431-.888c-2.542,0-5.334,2.768-5.334,8.03,0,3.882,1.759,7.959,5.182,7.959A5.638,5.638,0,0,0,38.5,17.313c0-.72,0-3.026,0-3.367l-.326.016c-.635,2.956-1.222,4.886-3.452,4.886-1.616,0-2.812-2.027-2.812-7.45,0-5.041.978-7.556,2.834-7.556,2.471,0,2.867,2.348,3.4,4.405l.366-.009v-4.7h-.413C37.989,5.171,37.164,4.256,37.164,4.256Zm82.916-.71.016.4c.895,0,1.4.684,1.4,2.206v7.5c-.783-1.5-4.669-8.808-5.278-9.988-.047-.081-.063-.121-.159-.121-.048,0-.722,0-1.442,0-.667,0-1.332,0-1.419,0-.276,0-.99,0-1.626,0h-1.787l.017.4c.9,0,1.381.275,1.381,1.8,0,.26,0,6.8,0,8.5,0,2.745-.537,4.492-2.272,4.492-1.457,0-2.049-1.326-2.049-3.587V5.126c0-.919.128-1.16.607-1.16h.387V3.55c-.271,0-1.265,0-2.1,0-.848,0-1.941,0-2.214,0v.416h.534c.464,0,.609.241.609,1.16v10c0,2.182,1.194,4.186,3.849,4.186,2.67,0,3.218-2.344,3.218-5.066,0-2.111,0-8.049,0-8.5,0-1.5.47-1.79,1.441-1.792a.992.992,0,0,1,.962.65c.177.32.427.856.635,1.257V16.725c0,1.5-.525,1.954-1,1.954-.042,0-.364-.014-.408-.018v.428c.145,0,.962.008,1.585.008h1.824v-.418h-.459c-.591,0-.959-.6-.959-2.159V7c2.512,4.822,3.712,7.2,6.4,12.325l.346,0c0-.94-.04-12.62-.04-13.16,0-1.5.573-2.2,1.548-2.2v-.4c-.272,0-1.112,0-1.752,0ZM75.732,18.728c-.575,0-1.085-.019-1.4-.039-.3-.02-.417-.556-.417-.917,0-1.14.006-5.216.006-6.176h.609c1.3,0,1.775,1.21,1.838,2.852l.32.013c0-.32,0-1.557,0-2.958,0-1.581.038-3.109.038-3.249l-.341-.013c0,1.221-.524,2.829-1.851,2.829h-.609c0-.72-.015-5.957-.015-6.9,0-.1.032-.14.161-.16.224-.021.464-.021.96-.021,1.711,0,2.37,1.171,3.345,3.393l.4-.024c-.175-1.02-.348-2.518-.54-3.7a.118.118,0,0,0-.128-.1c-.767.06-3.04.036-5.169.036-.734,0-1.7,0-2.3,0-.274,0-1.009,0-1.6,0H67.291v.378c.065,0,.477.014.525.014.511,0,.852.579.564,1.7-.655,2.6-2.244,8.916-2.244,8.916s-1.76-7.234-2.319-9.514c-.208-.821-.159-1.1.305-1.1h.434v-.4c-.272,0-1.269,0-2.1,0s-1.944,0-2.216,0v0c-.3,0-.973,0-1.579,0H56.875l.016.4c.9,0,1.381.275,1.381,1.8h0c0,.26,0,6.8,0,8.5,0,2.744-.535,4.493-2.272,4.493-1.456,0-2.049-1.326-2.049-3.587V5.168c0-.921.128-1.161.609-1.161h.387V3.591c-.272,0-1.266,0-2.1,0s-1.941,0-2.214,0v.416h.533c.464,0,.609.24.609,1.161v10c0,2.181,1.2,4.186,3.85,4.186,2.67,0,3.218-2.345,3.218-5.066v-8.5h0c0-1.5.473-1.791,1.449-1.791v0h.581c.384,0,.513.34.767,1.381.609,2.461,3.195,12.9,3.449,13.981h.3c.273-1.061,2.734-10.6,3.422-13.241.463-1.779,1.116-2.12,1.82-2.121.1,0,.449.015.5.015.464,0,.607.24.607,1.161v12.4c0,.92-.144,1.16-.607,1.16h-.479v.416h7.712c.1,0,.132.041.148-.02.319-1.281.555-3.236.812-4.356l-.409-.011C77.919,17.292,77.2,18.728,75.732,18.728Zm13.513-.667L87.759,14.71l-1.574-3.388.3-.162a3.779,3.779,0,0,0,1.913-3.6c0-2.66-1.615-3.965-3.359-3.965-.3,0-1.525,0-2.66,0-.9,0-2.021,0-2.26,0V4h.522c.464,0,.608.24.608,1.161v12.4c0,.921-.144,1.14-.608,1.14h-.522v.436h4.184V18.7h-.272c-.463,0-.608-.22-.608-1.14V11.819c0-.181.032-.22.176-.22.48,0,.72.341.959.919,1.328,3.142,2.12,5.02,2.376,5.62a1.515,1.515,0,0,0,1.294.972c.826.024,2.081.027,2.081.027l.011-.416A1.256,1.256,0,0,1,89.245,18.061Zm-5.1-6.963c-.156,0-.613.028-.666-.04,0-1.88.009-4.962.009-6.2,0-.62.161-.82.768-.82,1.167,0,1.839,1.24,1.839,3.461C86.092,10.038,85.324,11.1,84.141,11.1ZM44.789,3.368c-2.99,0-5.23,3.529-5.23,8.03,0,4.462,2.228,7.959,5.219,7.959s5.273-3.5,5.273-8S47.779,3.368,44.789,3.368Zm0,15.48c-2.207,0-2.767-3.789-2.767-7.45,0-3.7.581-7.556,2.789-7.556s2.776,3.815,2.776,7.516S47,18.848,44.789,18.848Z" transform="translate(0 -0.067)" fill="#315e4b" fill-rule="evenodd"/></g></g></g></g></svg>