<?xml version="1.0" encoding="UTF-8" standalone="no"?>
<svg
   xmlns:dc="http://purl.org/dc/elements/1.1/"
   xmlns:cc="http://creativecommons.org/ns#"
   xmlns:rdf="http://www.w3.org/1999/02/22-rdf-syntax-ns#"
   xmlns:svg="http://www.w3.org/2000/svg"
   xmlns="http://www.w3.org/2000/svg"
   xmlns:sodipodi="http://sodipodi.sourceforge.net/DTD/sodipodi-0.dtd"
   xmlns:inkscape="http://www.inkscape.org/namespaces/inkscape"
   version="1.1"
   id="svg2"
   xml:space="preserve"
   width="257.33334"
   height="257.33334"
   viewBox="0 0 257.33334 257.33334"
   sodipodi:docname="Reforma.eps"><metadata
     id="metadata8"><rdf:RDF><cc:Work
         rdf:about=""><dc:format>image/svg+xml</dc:format><dc:type
           rdf:resource="http://purl.org/dc/dcmitype/StillImage" /></cc:Work></rdf:RDF></metadata><defs
     id="defs6" /><sodipodi:namedview
     pagecolor="#ffffff"
     bordercolor="#666666"
     borderopacity="1"
     objecttolerance="10"
     gridtolerance="10"
     guidetolerance="10"
     inkscape:pageopacity="0"
     inkscape:pageshadow="2"
     inkscape:window-width="640"
     inkscape:window-height="480"
     id="namedview4" /><g
     id="g10"
     inkscape:groupmode="layer"
     inkscape:label="ink_ext_XXXXXX"
     transform="matrix(1.3333333,0,0,-1.3333333,0,257.33333)"><g
       id="g12"
       transform="scale(0.1)"><path
         d="M 0,1927.56 H 1927.56 V 0 H 0 v 1927.56"
         style="fill:#ffffff;fill-opacity:1;fill-rule:evenodd;stroke:none"
         id="path14" /><path
         d="M 354.504,1075.45 H 548.41 v -83.802 h -38.894 l -9.297,39.082 h -39.848 v -33.445 h 39.469 v -47.734 h -39.469 v -33.446 h 39.652 l 9.305,39.086 h 42.125 V 871.383 H 354.504 v 44.722 h 24.289 v 114.625 h -24.289 v 44.72"
         style="fill:#cfa53d;fill-opacity:1;fill-rule:evenodd;stroke:none"
         id="path16" /><path
         d="m 699.816,871.383 h -136.23 v 44.722 h 24.285 v 114.625 h -24.285 v 44.72 h 193.91 v -83.802 h -38.898 l -9.293,39.082 h -39.844 v -36.453 h 39.465 v -47.726 h -39.465 v -30.446 h 30.551 l -0.196,-44.722"
         style="fill:#cfa53d;fill-opacity:1;fill-rule:evenodd;stroke:none"
         id="path18" /><path
         d="m 1483.5,1075.45 -30.35,-78.165 -32.25,78.165 h -119.54 v -44.72 h 24.29 V 922.313 c 0,-4.012 -1.02,-6.208 -6.45,-6.208 h -17.84 v -44.722 h 96.77 v 44.722 h -18.03 c -3.04,0 -6.26,3.004 -6.26,6.208 l 0.19,76.468 51.6,-127.398 h 21.26 l 51.98,133.797 v -82.875 c 0,-4.004 -2.21,-6.2 -6.26,-6.2 h -14.99 v -44.722 h 116.5 v 44.722 c 0,0 -14.99,0 -18.03,0 -3.03,0 -6.26,3.196 -6.26,6.2 0,2.289 0,66.722 0,108.495 h -0.76 25.05 v 44.72 l -110.62,-0.07"
         style="fill:#cfa53d;fill-opacity:1;fill-rule:evenodd;stroke:none"
         id="path20" /><path
         d="m 1709.71,1032.23 h 2.27 l 13.54,-63.546 -26.94,-0.028 -6.49,-36.453 40.15,0.012 2.9,-16.11 h -16.71 v -44.722 h 124.09 v 44.722 h -21.25 l -31.88,114.625 h 21.26 v 44.72 h -176.84 v -44.72 h 21.26 l -24.29,-114.625 h -24.28 v -44.722 h 98.28 v 44.722 h -15.19 l 20.12,116.125"
         style="fill:#cfa53d;fill-opacity:1;fill-rule:evenodd;stroke:none"
         id="path22" /><path
         d="m 899.621,1084.47 c -82.156,0 -133.387,-45.28 -133.387,-107.482 0,-63.519 51.801,-108.793 133.387,-108.793 81.774,0 133.379,45.274 133.379,108.231 0,62.764 -51.035,108.044 -133.379,108.044"
         style="fill:#cfa53d;fill-opacity:1;fill-rule:evenodd;stroke:none"
         id="path24" /><path
         d="m 1136.12,1030.73 c 0,0 36.61,0 42.68,0 5.98,0 18.79,-1.56 18.79,-16.91 0,-14.34 -12.55,-18.789 -22.58,-18.789 -3.04,0 -39.06,0 -39.06,0 v -45.48 h 17.8 c 0,0 57.3,-66.332 59.39,-68.774 2.1,-2.433 8.83,-9.394 18.78,-9.394 h 58.63 v 44.722 c 0,0 -5.5,0 -8.53,0 -3.04,0 -7.88,1.961 -9.12,3.004 -3.88,3.317 -40.78,37.739 -40.6,37.774 30.27,5.762 46.5,25.371 46.5,58.627 0,50.74 -45.83,59.94 -72.1,59.94 -21.45,0 -176.46,0 -176.46,0 v -44.72 h 24.28 V 916.105 h -24.28 v -44.722 h 130.15 v 44.722 h -24.27 v 114.625"
         style="fill:#cfa53d;fill-opacity:1;fill-rule:evenodd;stroke:none"
         id="path26" /><path
         d="m 190.914,1030.73 c 0,0 36.613,0 42.684,0 5.98,0 18.785,-1.56 18.785,-16.91 0,-14.34 -12.555,-18.789 -22.582,-18.789 -3.031,0 -39.059,0 -39.059,0 v -45.48 h 17.809 c 0,0 57.301,-66.332 59.387,-68.774 2.089,-2.433 8.824,-9.394 18.785,-9.394 h 55.562 v 44.722 c 0,0 -2.437,0 -5.472,0 -3.032,0 -7.883,1.961 -9.114,3.004 -3.883,3.317 -40.785,37.739 -40.597,37.774 30.265,5.762 46.48,25.371 46.48,58.627 0,50.74 -45.812,59.94 -72.09,59.94 -21.441,0 -176.4529,0 -176.4529,0 v -44.72 H 109.324 V 916.105 H 85.0391 V 871.383 H 215.195 v 44.722 h -24.281 v 114.625"
         style="fill:#cfa53d;fill-opacity:1;fill-rule:evenodd;stroke:none"
         id="path28" /><path
         d="m 509.957,807.938 c -0.652,-1.942 -1.691,-3.508 -3.168,-4.813 -1.422,-1.187 -3.766,-1.781 -7.101,-1.84 -4.922,0 -8.415,1.461 -10.543,4.442 -2.086,2.918 -3.122,7.73 -3.122,14.554 0,7.582 0.985,13.047 2.95,16.457 1.972,3.356 4.703,5.028 8.312,5.028 1.633,0 2.86,-0.297 3.66,-1.078 1.125,-1.098 1.828,-3.25 2.102,-4.118 l 0.601,4.684 6.477,-0.129 -0.383,-15.379 -7.597,0.223 c 0,2.062 -0.059,3.902 -0.274,5.519 -0.16,1.629 -0.812,2.434 -2.019,2.434 -1.149,0 -2.02,-1.078 -2.739,-3.238 -0.597,-2.114 -0.871,-5.313 -0.925,-9.586 0,-4.711 0.222,-8.012 0.656,-9.965 0.441,-1.836 1.531,-2.754 3.332,-2.813 1.472,0 2.457,0.813 3.062,2.493 0.547,1.625 0.547,4.058 0,7.304 l 6.614,0.598 c 0.382,-1.293 0.652,-2.922 0.82,-4.977 0.164,-2.008 -0.055,-3.898 -0.715,-5.8"
         style="fill:#20170d;fill-opacity:1;fill-rule:evenodd;stroke:none"
         id="path30" /><path
         d="m 559.73,806.098 c -1.91,-3.184 -5.296,-4.754 -10.214,-4.813 -4.645,0 -7.981,1.676 -10.059,5.039 -1.965,3.356 -2.949,8.281 -3.008,14.774 0,7.25 0.93,12.554 2.903,15.961 1.964,3.363 5.351,5.039 10.164,5.039 4.918,0 8.304,-1.727 10.214,-5.2 1.915,-3.402 2.844,-8.664 2.899,-15.8 0,-6.762 -0.93,-11.743 -2.899,-15 z m -7.757,26.422 c -0.438,1.886 -1.258,2.812 -2.457,2.875 -1.258,0 -2.082,-0.821 -2.52,-2.551 -0.379,-1.625 -0.547,-5.52 -0.605,-11.746 0,-6.282 0.226,-10.02 0.777,-11.258 0.543,-1.195 1.309,-1.789 2.348,-1.789 0.761,0 1.308,0.113 1.746,0.429 0.441,0.278 0.711,0.926 0.929,1.95 0.215,1.078 0.329,2.336 0.383,3.738 0.059,1.41 0.059,3.68 0.11,6.93 0,5.679 -0.219,9.468 -0.711,11.422"
         style="fill:#20170d;fill-opacity:1;fill-rule:evenodd;stroke:none"
         id="path32" /><path
         d="m 615.906,804.484 c -0.875,-1.839 -3.445,-2.769 -6.289,-2.816 -2.676,0 -3.961,0.754 -5.101,2.324 -1.098,1.571 -1.7,4.543 -1.864,9.039 -0.058,2.008 -0.164,3.469 -0.386,4.391 -0.161,0.863 -1.121,1.293 -1.828,1.344 h -1.946 v -10.231 h 2.602 c 0,0 0,-0.156 0.051,-0.539 0.058,-0.324 -0.137,-0.976 -0.082,-2.055 0,-0.648 0,-1.457 0,-2.488 0,-0.973 0,-1.461 0,-1.515 h -13.715 v 6.597 h 2.625 v 26.363 h -2.625 v 6.606 h 14.343 c 3.719,0 6.559,-0.977 8.532,-2.926 1.961,-1.894 2.949,-4.543 3.004,-8.066 0,-2.926 -0.508,-5.082 -1.914,-6.27 -2.684,-2.297 -4.79,-2.222 -6.426,-2.445 1.527,-0.328 4.89,-0.613 6.293,-4.008 0.722,-1.738 0.734,-3.512 0.902,-7.57 0,-0.656 0.102,-1.133 0.324,-1.461 0.219,-0.223 0.492,-0.324 0.871,-0.379 0.77,0 1.153,0.594 1.258,1.781 0.059,1.199 0.059,2.336 0,3.469 0,0 0.332,0.055 0.985,0.164 0.66,0.105 1.093,0.16 1.425,0.16 0.051,-0.324 0.106,-0.867 0.215,-1.629 0.113,-0.707 0.164,-1.41 0.164,-2.105 0,-1.946 -0.437,-3.84 -1.418,-5.735 z m -13.011,28.735 c -0.438,0.926 -0.981,1.355 -1.692,1.41 h -2.711 v -9.582 h 2.711 c 0.652,0 1.203,0.156 1.692,0.598 0.492,0.378 0.71,1.511 0.765,3.406 0,1.84 -0.219,3.203 -0.765,4.168"
         style="fill:#20170d;fill-opacity:1;fill-rule:evenodd;stroke:none"
         id="path34" /><path
         d="m 656.414,801.938 v 6.597 h 2.488 l -0.875,5.149 h -7.05 l -0.77,-5.149 h 2.383 v -6.597 h -11.668 v 6.597 h 1.75 l 7.976,33.07 h 10.329 l 8.148,-33.07 h 2.074 v -6.597 z m -1.91,29.988 -2.379,-12.074 h 4.699 z"
         style="fill:#20170d;fill-opacity:1;fill-rule:evenodd;stroke:none"
         id="path36" /><path
         d="m 705.305,808.645 h 7.953 v 6.339 h 6.832 v -13.046 h -24.16 v 6.878 l 15.582,26.243 h -7.219 v -6.52 h -7.207 c 0,0 0,-0.082 0,2.41 0,2.492 0,4.817 0,7.09 0,0.594 0,1.293 0.105,2.113 0.059,0.758 0.059,1.129 0.106,1.184 0,0 0.605,0 1.805,0.059 1.203,0.054 2.242,0.054 3.117,0.109 3.121,0 6.937,0 11.476,0 4.481,0 6.723,0 6.774,0 v -8.262 l -15.164,-24.597"
         style="fill:#20170d;fill-opacity:1;fill-rule:evenodd;stroke:none"
         id="path38" /><path
         d="m 769.43,806.098 c -1.914,-3.184 -5.305,-4.754 -10.227,-4.813 -4.64,0 -7.973,1.676 -10.051,5.039 -1.968,3.356 -2.945,8.281 -3.004,14.774 0,7.25 0.926,12.554 2.891,15.961 1.973,3.363 5.356,5.039 10.164,5.039 4.922,0 8.313,-1.727 10.227,-5.2 1.91,-3.402 2.84,-8.664 2.894,-15.8 0,-6.762 -0.933,-11.743 -2.894,-15 z m -7.766,26.422 c -0.437,1.886 -1.254,2.812 -2.461,2.875 -1.258,0 -2.078,-0.821 -2.512,-2.551 -0.378,-1.625 -0.55,-5.52 -0.593,-11.746 0,-6.282 0.215,-10.02 0.754,-11.258 0.546,-1.195 1.32,-1.789 2.351,-1.789 0.77,0 1.313,0.113 1.75,0.429 0.445,0.278 0.711,0.926 0.93,1.95 0.226,1.078 0.332,2.336 0.383,3.738 0.054,1.41 0.054,3.68 0.113,6.93 0,5.679 -0.219,9.468 -0.715,11.422"
         style="fill:#20170d;fill-opacity:1;fill-rule:evenodd;stroke:none"
         id="path40" /><path
         d="m 824.559,834.898 v -32.96 h -7.817 l -9.262,21.652 v -15.055 h 2.868 v -6.597 h -12.735 v 6.597 h 2.629 v 26.363 h -2.629 v 6.606 h 10.879 l 9.047,-21.012 v 14.406 h -2.926 v 6.606 h 12.461 v -6.606 h -2.515"
         style="fill:#20170d;fill-opacity:1;fill-rule:evenodd;stroke:none"
         id="path42" /><path
         d="m 997.91,806.539 c -2.347,-3.031 -5.906,-4.547 -10.769,-4.601 h -13.223 v 6.597 h 3.035 v 26.363 h -3.035 v 6.606 h 12.453 c 2.192,0 4.16,-0.281 5.961,-0.816 1.746,-0.536 3.277,-1.571 4.703,-3.141 1.422,-1.563 2.508,-3.567 3.275,-6.113 0.77,-2.438 1.15,-5.848 1.15,-10.336 0,-6.606 -1.15,-11.418 -3.55,-14.559 z m -7.336,23.973 c -0.707,2.605 -1.902,3.894 -3.715,3.953 h -0.812 v -26.031 h 0.812 c 1.645,0 2.844,0.972 3.614,2.976 0.773,1.949 1.144,5.137 1.199,9.688 0,3.629 -0.324,6.765 -1.098,9.414"
         style="fill:#20170d;fill-opacity:1;fill-rule:evenodd;stroke:none"
         id="path44" /><path
         d="m 1144.39,801.938 v 6.597 h 3.05 v 19.274 l -6.25,-25.871 h -5.3 l -6.37,26.82 v -20.223 h 2.43 v -6.597 h -12.99 v 6.597 h 2.83 v 26.363 h -2.83 v 6.606 c 0,0 1.42,0 4.24,0 2.83,0 4.82,0 8,0 0.75,0 1.64,0 2.71,-0.055 1.05,0 1.57,0 1.57,-0.054 l 3.91,-18.344 3.77,18.344 c 0,0 0.36,0 1.12,0.054 0.7,0 1.36,0 1.95,0.055 2.93,0 5.68,0 8.75,0 3,0 4.48,0 4.54,0 v -6.606 h -2.83 v -26.363 h 2.83 v -6.597 h -15.13"
         style="fill:#20170d;fill-opacity:1;fill-rule:evenodd;stroke:none"
         id="path46" /><path
         d="m 1246.37,801.938 v 6.597 h 1.91 l -3.55,7.203 -3.44,-7.203 h 2.48 v -6.597 h -11.75 v 6.597 h 2.88 l 6.93,13.156 -6.56,13.207 h -2.69 v 6.606 h 14.8 v -6.606 h -1.61 l 3.11,-6.066 3.12,6.066 h -2.33 v 6.606 h 11.15 v -6.606 h -2.49 l -6.66,-11.585 7.54,-14.778 h 2.72 v -6.597 h -15.56"
         style="fill:#20170d;fill-opacity:1;fill-rule:evenodd;stroke:none"
         id="path48" /><path
         d="m 1285.56,801.938 v 6.597 h 3.2 v 26.363 h -3.2 v 6.606 h 15.33 v -6.606 h -3.25 v -26.363 h 3.25 v -6.597 h -15.33"
         style="fill:#20170d;fill-opacity:1;fill-rule:evenodd;stroke:none"
         id="path50" /><path
         d="m 1399.9,806.098 c -1.91,-3.184 -5.31,-4.754 -10.22,-4.813 -4.64,0 -7.99,1.676 -10.06,5.039 -1.97,3.356 -2.96,8.281 -3.01,14.774 0,7.25 0.93,12.554 2.91,15.961 1.96,3.363 5.35,5.039 10.16,5.039 4.91,0 8.31,-1.727 10.22,-5.2 1.91,-3.402 2.85,-8.664 2.89,-15.8 0,-6.762 -0.91,-11.743 -2.89,-15 z m -7.77,26.422 c -0.43,1.886 -1.25,2.812 -2.45,2.875 -1.27,0 -2.09,-0.821 -2.51,-2.551 -0.39,-1.625 -0.56,-5.52 -0.61,-11.746 0,-6.282 0.22,-10.02 0.77,-11.258 0.55,-1.195 1.31,-1.789 2.35,-1.789 0.77,0 1.31,0.113 1.75,0.429 0.44,0.278 0.7,0.926 0.93,1.95 0.22,1.078 0.32,2.336 0.37,3.738 0.06,1.41 0.06,3.68 0.12,6.93 0,5.679 -0.21,9.468 -0.72,11.422"
         style="fill:#20170d;fill-opacity:1;fill-rule:evenodd;stroke:none"
         id="path52" /><path
         d="m 1026.28,801.938 v 6.597 h 3.2 v 26.363 h -3.2 v 6.606 h 25.82 l -0.03,-13.344 -7.72,0.028 v 6.277 h -5.58 v -9.145 h 5.41 v -6.656 h -5.41 v -9.691 h 5.41 v 7.031 h 8.09 v -14.066 h -25.99"
         style="fill:#20170d;fill-opacity:1;fill-rule:evenodd;stroke:none"
         id="path54" /><path
         d="m 1180.97,801.938 v 6.597 h 3.2 v 26.363 h -3.2 v 6.606 h 25.83 l -0.04,-13.344 -7.72,0.028 v 6.277 h -5.58 v -9.145 h 5.4 v -6.656 h -5.4 v -9.691 h 5.4 v 7.031 h 8.11 v -14.066 h -26"
         style="fill:#20170d;fill-opacity:1;fill-rule:evenodd;stroke:none"
         id="path56" /><path
         d="m 1350.13,807.938 c -0.66,-1.942 -1.7,-3.508 -3.18,-4.813 -1.41,-1.187 -3.77,-1.781 -7.09,-1.84 -4.93,0 -8.43,1.461 -10.56,4.442 -2.07,2.918 -3.11,7.73 -3.11,14.554 0,7.582 0.98,13.047 2.94,16.457 1.97,3.356 4.71,5.028 8.31,5.028 1.64,0 2.86,-0.305 3.67,-1.078 0.95,-0.903 1.83,-3.25 2.1,-4.118 l 0.6,4.684 6.48,-0.129 -0.38,-15.379 -7.61,0.223 c 0,2.062 -0.05,3.902 -0.27,5.519 -0.15,1.629 -0.82,2.434 -2.01,2.434 -1.15,0 -2.03,-1.078 -2.73,-3.238 -0.62,-2.114 -0.88,-5.313 -0.93,-9.586 0,-4.711 0.21,-8.012 0.65,-9.965 0.43,-1.836 1.52,-2.754 3.33,-2.813 1.48,0 2.46,0.813 3.05,2.493 0.56,1.625 0.56,4.058 0,7.304 l 6.63,0.598 c 0.38,-1.293 0.65,-2.922 0.81,-4.977 0.17,-2.008 -0.05,-3.898 -0.7,-5.8"
         style="fill:#20170d;fill-opacity:1;fill-rule:evenodd;stroke:none"
         id="path58" /><path
         d="m 359.098,1084.57 h 193.914 v -83.82 h -38.903 l -9.289,39.09 h -39.847 v -33.45 h 39.465 v -47.726 h -39.465 v -33.453 h 39.656 l 9.297,39.086 h 42.125 V 880.496 H 359.098 v 44.715 h 24.297 v 114.629 h -24.297 v 44.73"
         style="fill:#008061;fill-opacity:1;fill-rule:evenodd;stroke:none"
         id="path60" /><path
         d="M 701.348,880.496 H 565.121 v 44.715 h 24.289 v 114.629 h -24.289 v 44.73 h 193.91 v -83.82 h -38.902 l -9.293,39.09 h -39.844 v -36.45 h 39.465 v -47.734 h -39.465 v -30.445 h 30.547 l -0.191,-44.715"
         style="fill:#008061;fill-opacity:1;fill-rule:evenodd;stroke:none"
         id="path62" /><path
         d="m 1478.91,1084.57 -30.37,-78.18 -32.25,78.18 h -119.53 v -44.73 h 24.28 V 931.422 c 0,-4.016 -1,-6.211 -6.45,-6.211 h -17.83 v -44.715 h 96.77 v 44.715 h -18.03 c -3.04,0 -6.27,3.012 -6.27,6.211 l 0.19,76.468 51.61,-127.394 h 21.26 l 51.99,133.784 v -82.866 c 0,-4.008 -2.22,-6.203 -6.26,-6.203 h -15 v -44.715 h 116.5 v 44.715 c 0,0 -14.99,0 -18.03,0 -3.04,0 -6.26,3.199 -6.26,6.203 0,2.285 0,66.723 0,108.486 h -0.76 25.05 v 44.73 l -110.61,-0.06"
         style="fill:#008061;fill-opacity:1;fill-rule:evenodd;stroke:none"
         id="path64" /><path
         d="m 1700.51,1041.35 h 2.28 l 13.53,-63.553 -26.94,-0.031 -6.69,-36.457 40.35,0.019 2.9,-16.117 h -16.71 v -44.715 h 124.09 v 44.715 h -21.25 l -31.87,114.629 h 21.25 v 44.73 h -176.84 v -44.73 h 21.26 l -24.28,-114.629 h -24.29 v -44.715 h 98.27 v 44.715 h -15.18 l 20.12,116.139"
         style="fill:#008061;fill-opacity:1;fill-rule:evenodd;stroke:none"
         id="path66" /><path
         d="m 899.621,1093.58 c -82.156,0 -133.387,-45.28 -133.387,-107.482 0,-63.516 51.801,-108.797 133.387,-108.797 81.774,0 133.379,45.281 133.379,108.23 0,62.769 -51.035,108.049 -133.379,108.049"
         style="fill:#008061;fill-opacity:1;fill-rule:evenodd;stroke:none"
         id="path68" /><path
         d="m 1134.57,1039.84 c 0,0 36.63,0 42.7,0 5.98,0 18.78,-1.56 18.78,-16.91 0,-14.34 -12.55,-18.79 -22.58,-18.79 -3.02,0 -39.05,0 -39.05,0 v -45.476 h 17.81 c 0,0 57.3,-66.328 59.38,-68.781 2.08,-2.434 8.84,-9.387 18.78,-9.387 h 58.63 v 44.715 c 0,0 -5.5,0 -8.53,0 -3.04,0 -7.9,1.973 -9.11,3.012 -3.89,3.32 -40.8,37.738 -40.6,37.773 30.26,5.758 46.47,25.363 46.47,58.624 0,50.74 -45.81,59.95 -72.08,59.95 -21.45,0 -176.46,0 -176.46,0 v -44.73 H 1053 V 925.211 h -24.29 v -44.715 h 130.16 v 44.715 h -24.3 v 114.629"
         style="fill:#008061;fill-opacity:1;fill-rule:evenodd;stroke:none"
         id="path70" /><path
         d="m 200.113,1039.84 c 0,0 36.614,0 42.68,0 5.977,0 18.789,-1.56 18.789,-16.91 0,-14.34 -12.555,-18.79 -22.578,-18.79 -3.035,0 -39.059,0 -39.059,0 v -45.476 h 17.809 c 0,0 57.301,-66.328 59.383,-68.781 2.086,-2.434 8.824,-9.387 18.781,-9.387 h 55.562 v 44.715 c 0,0 -2.437,0 -5.464,0 -3.039,0 -7.895,1.973 -9.114,3.012 -3.886,3.32 -40.785,37.738 -40.601,37.773 30.265,5.758 46.484,25.363 46.484,58.624 0,50.74 -45.82,59.95 -72.094,59.95 -21.445,0 -176.4488,0 -176.4488,0 v -44.73 H 118.523 V 925.211 H 94.2422 V 880.496 H 224.395 v 44.715 h -24.282 v 114.629"
         style="fill:#008061;fill-opacity:1;fill-rule:evenodd;stroke:none"
         id="path72" /><path
         d="m 891.254,1030.73 7.891,33.66 7.878,-33.69 0.082,0.02 19.036,28.96 -4.231,-34.32 0.016,0.02 27.855,20.81 -15.777,-30.85 0.07,-0.04 33.36,10.12 -25.473,-23.64 h 0.016 l 34.843,-1.73 -32.074,-13.64 0.024,-0.078 32.144,-13.434 -34.859,-1.945 0.027,-0.008 25.609,-23.48 -33.449,9.918 -0.031,-0.059 15.961,-30.734 -28.004,20.648 0.016,-0.019 4.433,-34.281 -19.23,28.863 -0.063,-0.035 -7.672,-33.707 -8.097,33.632 -0.008,-0.027 -18.801,-29.105 3.949,34.359 -0.078,0.004 -27.719,-20.981 15.579,30.95 -0.024,-0.02 -33.277,-10.387 25.285,23.848 -0.047,0.059 -34.867,1.515 32,13.852 -0.024,-0.008 -32.253,13.184 34.843,2.226 v 0.07 l -25.761,23.31 33.507,-9.71 -15.445,31.26 27.938,-20.79 -4.204,34.37 19.106,-28.94"
         style="fill:#ffffff;fill-opacity:1;fill-rule:evenodd;stroke:none"
         id="path74" /><path
         d="m 949.449,781.895 c 0,0 -13.597,0.511 -18.64,10.293 -5.047,9.769 -12.946,10.863 -12.946,10.863 0,0 0.664,2.168 -3.726,5.207 0,0 -0.223,5 -3.731,11.297 0,0 0.227,6.078 -1.093,9.777 -1.313,3.691 0.218,14.328 2.417,18.465 h 0.872 c 0,0 0.66,-3.262 1.312,-5 0,0 1.098,-3.692 -0.434,-9.113 -0.898,-3.2 -0.746,-10.762 1.208,-12.496 0.582,-0.524 2.191,-0.536 2.667,-0.18 0.301,0.238 0.735,1.484 0.735,1.484 l 2.297,0.328 c 0,0 3.406,3.688 4.066,6.727 0.652,3.035 -1.762,9.672 -0.226,14.562 1.078,3.418 6.582,13.465 6.582,13.465 0,0 3.07,-1.312 6.14,-1.312 3.067,0 19.153,0.742 18.614,15.285 -0.387,10.289 -10.497,19.254 -10.497,19.254 0,0 5.704,20.426 -6.148,38.89 l 0.223,1.731 c 0,0 4.832,3.262 5.484,4.781 0.551,1.281 1.426,5.621 0.656,7.391 -0.656,1.523 -6.797,8.476 -7.019,9.992 -0.215,1.516 -0.215,3.687 -1.532,4.562 l 0.219,1.52 2.192,-2.172 c 0,0 6.14,-2.824 16.011,-2.172 9.868,0.649 12.063,3.035 12.063,3.035 l 2.418,0.442 c 0,0 3.058,-0.637 5.039,0.648 1.672,1.071 4.898,0.344 4.898,0.344 0.45,0.547 1.899,2.199 2.625,3.934 0.723,1.726 0.703,3.546 1.254,4.41 l -0.656,1.738 c 0,0 -4.414,1.109 -6.172,-1.277 0,0 -1.07,-1.11 -2.168,-1.762 l 1.973,1.523 -0.875,1.954 c 0,0 -3.508,-2.606 -5.047,-3.696 -1.535,-1.086 -3.289,-2.39 -5.035,-2.605 -1.762,-0.219 -13.387,3.914 -16.02,4.125 -2.636,0.222 -4.824,0 -4.824,0 l -1.75,1.523 c 0,0 -1.98,8.035 -5.051,13.465 0,0 3.731,3.91 4.61,9.559 l 0.656,1.3 c 0,0 -3.074,5 -6.578,6.306 l -10.145,11 c 0,0 10.188,-0.09 11.504,3.61 l -1,4.21 c 0,0 9.871,-1.55 14.469,3.63 2.828,3.18 -0.875,5.61 -0.875,5.61 0,0 5.648,0.63 5.582,8.65 -0.004,1.79 -1.738,1.66 -1.738,1.66 0,0 7.507,7.01 7.847,11.46 0.153,2.08 -0.527,3.89 -0.527,3.89 0,0 10.23,3.01 11.648,15.26 0.403,3.53 -2.441,2.03 -2.441,2.03 l -0.348,1.11 c 0,0 9.235,15.29 6.961,26.44 -1.105,5.52 -3.906,4.1 -3.906,4.1 l -0.793,-2.07 c 0,0 -4.141,-7.49 -13.387,-17.84 -9.242,-10.35 -14.738,-8.03 -21.758,-18.24 0,0 -2.855,-9.55 -5.046,-12.16 0,0 -2.192,3.04 -4.602,3.47 0,0 -1.535,5.65 -9,5.65 -12.719,0 -14.687,-7.6 -14.687,-7.6 0,0 -5.043,-2.82 -5.043,-6.73 0,-3.91 1.093,-5.43 1.093,-5.43 0,0 -0.879,-2.39 1.098,-4.13 l 0.219,-1.31 c 0,0 -4.164,-3.25 2.851,-8.25 l 0.219,-1.74 -1.312,-3.91 c 0,0 -4.168,9.34 -6.368,12.6 l -0.214,2.61 c 0,0 1.968,6.73 2.851,15.2 0,0 1.859,16.56 2.957,18.29 1.098,1.74 4.602,2.18 6.141,3.7 1.535,1.52 2.304,2.71 3.179,4.02 0.875,1.3 1.207,2.71 1.426,4.67 l -1.097,1.3 c 0,0 -0.555,-0.47 -2.032,-0.52 -0.511,-0.02 -1.332,0.11 -1.332,0.11 0,0 -1.461,-1.33 -1.683,0.84 l -5.481,1.31 c 0,0 -3.285,-0.88 -3.512,-6.95 0,0 -1.308,-1.3 -2.191,-2.39 -0.879,-1.09 0,-2.39 -0.434,-3.48 -0.445,-1.08 -8.664,-23.29 -9.539,-25.24 -0.878,-1.96 -1.32,-4.34 -1.757,-5.43 -0.434,-1.09 -0.34,-4.89 -0.34,-4.89 0,0 0.297,-1.5 0.777,-5.75 0.328,-2.89 -0.359,-9.71 -0.148,-10.79 0,0 -6.645,1.66 -10.379,8.83 -3.731,7.17 -8.91,35.28 -17.68,46.14 -5.035,6.25 -62.394,57.53 -74.297,66.86 -1.426,1.11 -4.801,2.96 -5.922,1.51 -1.129,-1.44 -5.961,-5.59 2.383,-17.41 l -0.652,-1.08 c 0,0 -4.836,2.21 -5.266,-0.22 -0.426,-2.43 -0.258,-9.89 4.567,-17.27 l -0.215,-1.3 -3.293,-1.74 c 0,0 0.133,-12.74 14.172,-22.94 v -1.31 l -2.633,-1.74 c 0,0 -11.25,-1.91 15.066,-16.68 0,0 -1.765,-2.01 -1.094,-3.68 1.176,-2.97 5.391,-7.38 12.356,-11.11 0,0 -2.199,-2.23 -1.695,-4.21 0.488,-1.98 1.183,-4.68 10.468,-8.82 v -5.22 c 0,0 0.934,-7.14 14.262,-11.73 l -3.781,-6.03 c 0,0 -0.61,-10.69 10.793,-10.91 l -2.629,-4.994 c 0,0 0.656,-5.867 9.871,-4.132 l 0.66,-0.871 -1.539,-4.778 c 0,0 1.313,-5.648 8.774,-3.469 l 1.097,-0.656 -1.097,-4.777 c 0,0 2.414,-6.52 11.402,-6.086 l 1.539,-0.649 -0.883,-3.039 c 0,0 7.024,-4.785 12.289,-1.742 l 1.973,-0.429 c 0,0 3.109,-2.141 4.387,-3.481 0,0 6.39,0.82 9.211,2.824 l 1.093,-0.648 c 0,0 -0.449,-0.535 -1.168,-1.242 -1.894,-1.875 -3.59,-5.262 -4.39,-7.321 -1.094,-2.82 -2.996,-8.386 -2.996,-8.386 0,0 -13.817,-5.864 -13.817,-11.731 0,-4.781 2.633,-6.73 2.633,-6.73 0,0 -1.754,-6.731 -4.605,-8.907 -8.965,-6.828 -15.094,-3.656 -12.063,-11.726 0,0 -27.746,-5.203 -27.992,-12.77 -0.485,-15.043 9.785,-21.996 9.785,-21.996 l 0.656,-1.09 c 0,0 -1.695,-4.296 -0.238,-5.941 3.516,-3.996 11.43,-5.992 11.43,-5.992 l 0.218,-1.313 c 0,0 -4.168,-5.89 -2.171,-10.035 3.64,-7.547 13.14,-11.242 13.14,-11.242 0,0 -4.492,-4.539 6.356,-15.203 0,0 -0.891,-1.32 -0.309,-3.551 0,0 -9.977,-5.707 -7.324,-11.551 5.32,-11.73 14.043,-15.957 32.64,5.102 l 1.09,-0.227 c 0,0 0.66,-2.601 1.102,-3.25 0.437,-0.648 -1.102,-2.176 -0.442,-6.304 0,0 -7.066,-1.055 -12.285,-11.723 -5.043,-10.316 -20.609,-9.918 -20.609,-9.918 l 82.902,0.059"
         style="fill:#20170d;fill-opacity:1;fill-rule:evenodd;stroke:none"
         id="path76" /><path
         d="m 863.156,907.207 c 0,0 -23.273,-6.441 -23.898,-10.148 -0.387,-2.262 6.828,-2.262 6.828,-2.262 0,0 6.523,1.414 19.16,11.273 l -2.09,1.137"
         style="fill:#cfa53d;fill-opacity:1;fill-rule:evenodd;stroke:none"
         id="path78" /><path
         d="m 932.117,1018.1 c 0.664,2.6 -2.844,2.6 -2.844,2.6 v 1.31 c 0,0 3.946,0.65 9.211,5.87 5.266,5.21 0.657,6.73 0.657,6.73 l -0.223,1.09 c 7.68,3.69 10.227,9.13 10.227,9.13 l 0.964,6.72 c -4.609,-3.25 -10.968,-4.99 -10.968,-4.99 l -0.438,1.08 c 5.57,7.1 1.973,14.34 1.973,14.34 -1.094,-5.21 -6.797,-12.39 -6.797,-12.39 1.891,-2.73 0,-6.07 0,-6.07 1.125,-5.57 -3.727,-7.39 -3.727,-7.39 -0.879,-4.78 -2.797,-5.41 -3.73,-7.39 -1.379,-2.94 -3.344,-3.4 -3.934,-3.38 0,0 -1.543,-3.37 -0.883,-5.67 0.657,-2.29 3.458,-5.14 3.458,-5.14 4.605,1.09 6.402,0.95 7.054,3.55"
         style="fill:#cfa53d;fill-opacity:1;fill-rule:evenodd;stroke:none"
         id="path80" /><path
         d="m 924.227,1054.16 c 0,0 -2.657,-2.09 -5.485,-1.73 -2.41,0.28 -5.469,-0.39 -5.469,-0.39 -2.675,1.17 -5.808,0.09 -5.808,0.09 0,0 4.457,0.14 5.426,-1.61 0.093,-0.17 -2.246,-0.32 -4.121,-1.64 -0.668,-0.48 -1.305,-1.56 -1.856,-1.88 -0.668,-0.39 -1.113,-0.66 -1.113,-0.66 l -1.828,-0.71 c 0,0 2.769,-0.46 5.179,0.63 2.414,1.09 -1.984,2.33 3.407,3.41 3.808,0.76 9.257,-0.72 12.328,3.62 l -0.66,0.87"
         style="fill:#cfa53d;fill-opacity:1;fill-rule:evenodd;stroke:none"
         id="path82" /><path
         d="m 927.52,1054.38 c 0,0 -1.977,-3.48 1.753,-7.61 l 1.094,-0.21 c 0,0 1.098,2.82 0,4.78 -1.094,1.95 -2.847,3.04 -2.847,3.04"
         style="fill:#cfa53d;fill-opacity:1;fill-rule:evenodd;stroke:none"
         id="path84" /><path
         d="m 916.25,1014.41 c 0,0 -2.84,2.98 -5.336,5.97 -2.496,3 -1.582,6.6 -2.019,7.9 0,0 -1.047,-2.65 -2.223,-8.14 0,0 3.961,-2.91 5.93,-5.95 l 3.648,0.22"
         style="fill:#cfa53d;fill-opacity:1;fill-rule:evenodd;stroke:none"
         id="path86" /><path
         d="m 783.934,1097.71 c 0,0 -1.868,-0.57 -1.317,-1.95 0.547,-1.38 5.617,-9.47 10.883,-13.6 0,0 -3.809,-2.26 -3.738,-3.2 0.07,-0.95 -4.438,-6.09 26.613,-18.23 0,0 0.371,-1 -0.871,-1.23 -1.231,-0.22 -6.43,1.47 -7.82,1.09 -1.387,-0.38 -1.676,-1.17 -1.067,-3.51 0.461,-1.77 6.004,-6.28 14.113,-10.4 l -1.125,-1.04 -2.851,1.13 c 0,0 -2.016,-1.47 -0.695,-4.15 1.175,-2.37 4.414,-4.25 10.242,-6.05 l -1.063,-2.56 c 0,0 -0.902,-3.07 0.203,-5.09 1.098,-2.01 6.723,-6.01 14.18,-9.7 l -0.406,-0.98 c 0,0 -12.676,-10.32 14.433,-16.2 0,0 -11.57,7.42 -11.98,10.6 -0.605,4.82 4.617,6.2 4.617,6.2 0,0 -14.242,6.37 -9.777,11.53 0,0 -12.43,6.86 -8.379,11.01 l -0.188,1.71 c 0,0 -8.289,6.33 -6.144,13.24 0.879,2.83 3.078,2.83 3.078,2.83 l -0.445,1.73 c 0,0 -6.356,4.13 -3.723,12.16 l -0.441,1.75 c 0,0 -2.645,6.79 3.246,5.66 l 2.273,1.69 c 0,0 -8.262,14.44 1.137,14.67 0,0 -35.504,34.51 -43.668,40.89 0,0 -3.887,2.95 -4.926,2.44 -1.043,-0.51 -0.574,-2.44 -0.574,-2.44 0,0 0.187,-8.99 13.094,-21.01 l -0.188,-1.32 c 0,0 -8.539,8.64 -13.855,8.27 l -0.754,-1.51 c 0,0 0.754,-11.65 15.367,-23.86 l -0.57,-0.94 c 0,0 -3.399,1.13 -6.914,0.37"
         style="fill:#cfa53d;fill-opacity:1;fill-rule:evenodd;stroke:none"
         id="path88" /><path
         d="m 934.703,992.598 c 1.973,-2.61 2,-6.36 2,-6.36 2.192,0.43 3.848,5.793 3.848,5.793 l 0.562,2.387 c -4.433,-2.512 -8.25,1.047 -8.25,1.047 l 1.84,-2.867"
         style="fill:#cfa53d;fill-opacity:1;fill-rule:evenodd;stroke:none"
         id="path90" /><path
         d="m 899.074,816.184 c 0,0 1.125,-2.055 2.446,-4.664 1.316,-2.61 -1.504,-7.168 0.683,-8.688 2.195,-1.527 5.129,-2.391 7.328,-0.656 l 1.535,0.656 c 0,0 0.719,-1.172 2.911,-0.957 2.195,0.211 2.679,1.125 0.82,3.781 -0.981,1.395 -2.414,1.524 -2.414,1.524 0,0 -0.438,4.55 -4.383,4.55 l -0.668,1.747 c 0,0 3.957,4.558 -0.43,9.781 0,0 -3.73,17.375 -0.882,29.527 0,0 -2.004,3.625 -4.075,3.672 -2.074,0.059 -3.59,-2.203 -4.652,-9.535 0,0 -1.949,-0.567 3.539,-19.246 0,0 -2.383,0.039 0.438,-5.649 l -2.196,-5.843"
         style="fill:#cfa53d;fill-opacity:1;fill-rule:evenodd;stroke:none"
         id="path92" /><path
         d="m 892.969,781.961 c 2.035,2.152 3.121,5.394 4.277,9.355 1.981,6.739 5.703,9.125 5.703,9.125 -1.972,0.649 -3.066,1.95 -3.066,1.95 -3.637,-1.383 -8.539,-5.168 -11.453,-11.743 -1.95,-4.418 -5.723,-7.156 -9.164,-8.832 l 13.703,0.145"
         style="fill:#cfa53d;fill-opacity:1;fill-rule:evenodd;stroke:none"
         id="path94" /><path
         d="m 910.266,1050.91 c 0,0 -2.895,0.79 -5.082,-0.85 -1.7,-1.29 -0.61,-2.25 0.574,-1.69 1.555,0.74 1.851,1.78 4.508,2.54"
         style="fill:#cfa53d;fill-opacity:1;fill-rule:evenodd;stroke:none"
         id="path96" /><path
         d="m 924.699,1040.48 c 0,0 0.168,-2 1.231,-1.84 1.066,0.17 0.535,0.71 0.535,0.71 0,0 -0.875,0.62 -1.766,1.13"
         style="fill:#cfa53d;fill-opacity:1;fill-rule:evenodd;stroke:none"
         id="path98" /><path
         d="m 937.066,962.211 c 0,0 -0.289,3.668 -0.949,5.641 0,0 1.039,8.921 0.848,12.121 0,0 2.566,-6.485 2.851,-9.02 0.286,-2.535 -1.425,-8.64 -1.136,-8.93 0.277,-0.277 3.804,1.872 5.117,1.04 2.375,-1.504 9.582,-0.379 12.523,-1.504 2.942,-1.129 8.442,0.187 9.481,0.464 1.047,0.29 3.801,2.348 4.367,2.442 0.578,0.094 2.57,-1.402 2.57,-1.402 0,0 -0.859,-1.692 -3.609,-0.657 -0.281,0.102 0.566,-1.324 -0.672,-1.695 -1.223,-0.375 -1.316,-0.473 -1.316,-0.473 0,0 -4.692,-2.152 -6.477,-2.441 -2.371,-0.375 -10.316,-1.406 -13.637,-0.559 -3.324,0.848 -7.496,1.785 -9.961,4.973"
         style="fill:#cfa53d;fill-opacity:1;fill-rule:evenodd;stroke:none"
         id="path100" /><path
         d="m 923.781,930.836 c 0,0 0.481,1.031 -0.093,4.137 0,0 -0.95,4.98 -5.504,7.324 -7.422,3.828 -11.418,1.027 -12.235,-0.192 -2.094,-3.101 9.836,0.977 10.34,-1.5 0.352,-1.738 -4.656,-2.511 -14.363,-1.398 -14.156,1.645 -22.442,-7.785 -22.442,-7.785 0,0 -3.296,1.312 -1.972,5.223 1.89,5.601 13.16,8.031 21.929,8.902 8.77,0.875 22.153,6.949 22.153,6.949 l 0.883,-0.867 c 0,0 -3.606,-4.762 -0.098,-9.539 3.508,-4.777 7.473,-11.914 1.402,-11.254"
         style="fill:#cfa53d;fill-opacity:1;fill-rule:evenodd;stroke:none"
         id="path102" /><path
         d="m 916.797,957.859 c 2.719,1.067 9.43,5.121 9.43,5.121 -0.684,3.418 -4.411,2.985 -4.411,2.985 l -0.222,2.172 c 0,0 -0.848,6.761 6.363,10.429 3.313,1.684 -1.535,7.598 -8.117,6.735 -6.578,-0.871 -8.336,1.09 -8.336,1.09 l 0.82,1.64 c 0,0 0,-1.078 4.391,-0.648 4.379,0.437 10.531,3.64 8.609,7.691 -1.117,2.36 -2.554,3.383 -4.004,3.817 -0.48,0.144 -1.242,1.101 -1.621,0.824 -1.797,-1.328 -2.937,-0.774 -3.84,-0.477 -1.945,0.653 -2.144,0.782 -3.742,2.782 -1.613,2.01 -3.14,5.4 -5.437,7.82 -6.231,6.59 -0.887,-8 -1.094,-9.12 -0.207,-1.115 -3.492,-0.743 -3.492,-0.743 0,0 -5.125,1.793 -5.281,2.913 -0.165,1.14 -2.567,11.39 -2.567,11.39 0,0 2.41,5.54 2.242,7.16 -1.093,10.43 -2.82,14.92 -2.82,14.92 l -0.234,3.04 c 0,0 4.785,18.02 5.328,21.82 0.293,2.07 -0.375,1.87 -0.848,1.87 -0.476,0 -3.656,-7.2 -4.047,-7.96 -3.304,-6.31 -5.429,-10.75 -5.429,-10.75 l -1.399,-6.45 c 3.074,-6.29 0.598,-12.91 0.453,-20.65 -0.125,-6.14 6.684,-8.52 6.684,-16.34 0,-6.249 8.289,-20.502 11.652,-24.651 1.184,-1.465 0.035,-5.73 -1.871,-7.453 -1.894,-1.738 -4.023,-3.977 -5.285,-5.488 -1.266,-1.512 -2.688,-3.957 -3.688,-6.375 -1.093,-2.618 -2.937,-7.981 -2.937,-7.981 0,0 22.043,7.797 24.75,8.867"
         style="fill:#cfa53d;fill-opacity:1;fill-rule:evenodd;stroke:none"
         id="path104" /><path
         d="m 922.109,1036.02 c 0,0 -0.902,-0.04 -1.546,-0.27 -0.567,-0.21 -0.727,-0.78 -2.125,-1.11 -0.883,-0.2 3.441,-0.76 3.441,-0.76 0,0 1.5,-0.71 -0.051,-0.8 -0.281,-0.02 -0.551,-0.04 -0.785,-0.06 -3.949,-0.29 -2.785,-1.18 -2.785,-1.18 0,0 4.172,-0.24 3.18,-2.54 -0.993,-2.26 -7.145,-0.76 -8.477,0.56 -1.32,1.32 -5.309,4.8 -2.457,7.61 1.156,1.15 0.723,2.31 0.164,3.09 -1.742,2.41 2.027,7.33 2.59,7.66 1.637,0.97 5.711,-0.92 7.558,-0.33 1.848,0.58 4.832,3.45 4.832,3.45 -0.539,-4.66 1.325,-7.9 1.325,-7.9 0,0 -2.102,0.96 -3.278,1.25 -0.48,0.11 -2.031,-3.4 -0.773,-5.66 -0.106,0.19 -1.426,0.28 -2.242,-0.37 -1.129,-0.87 -1.746,-1.56 -1.746,-1.56 0,0 1.953,0.24 2.41,0.21 l 0.765,-1.29"
         style="fill:#cfa53d;fill-opacity:1;fill-rule:evenodd;stroke:none"
         id="path106" /><path
         d="m 916.035,902.68 c -4.207,10.398 -10.656,8.707 -7.812,7.203 2.843,-1.508 4.554,-5.828 5.117,-10.707 0.574,-4.883 -5.117,0 -5.875,-0.949 -0.758,-0.938 1.902,-3 3.226,-5.075 1.321,-2.062 -0.171,-4.996 -0.171,-4.996 -4.258,-4.332 -8.86,-7.379 -10.735,-11.488 -2.844,-6.234 -7.765,-9.172 -7.765,-9.172 2.742,-1.332 5.753,3.152 11.171,3.422 3.637,0.184 6.325,-3.988 9.719,-4.035 0.067,0 4.641,-4.887 4.52,-7.57 -0.614,-13.95 -4.602,-9.352 -4.602,-9.352 l -0.883,0.648 c 2.414,9.352 -4.828,14.129 -12.718,11.301 -7.895,-2.824 -18.797,-16.715 -23.911,-14.551 -5.105,2.18 -7.336,9.536 -7.336,9.536 0,0 3.532,0.699 5.583,1.98 7.734,4.82 9.652,18.242 12.941,30.414 3.289,12.164 13.816,29.324 24.562,23.024 3.36,-1.969 4.719,-5.477 4.969,-9.633"
         style="fill:#cfa53d;fill-opacity:1;fill-rule:evenodd;stroke:none"
         id="path108" /><path
         d="m 910.301,918.613 c 0,0 7.043,-3.508 8.777,-9.371 0,0 -3.789,5.508 -9.465,7.293 -13.711,4.293 -21.363,-11.82 -28.597,-30.722 -7.235,-18.899 -11.809,-17.989 -15.77,-22.059 0,0 -1.953,6.18 -3.918,7.527 0,0 -4.051,-1.097 -7.918,-0.492 -5.89,0.914 -5.996,0.524 -5.148,6.551 0.468,3.32 4.843,-1.711 10.027,-2 6.387,-0.36 10.75,6.683 13.961,13.512 2.668,5.675 4.949,17.097 12.277,26.289 7.473,9.347 13.032,11.617 15.653,11.679 3.39,0.086 5.312,-2.386 9.734,-3.781 0,0 2.879,-3.66 0.387,-4.426"
         style="fill:#cfa53d;fill-opacity:1;fill-rule:evenodd;stroke:none"
         id="path110" /><path
         d="m 907.07,926.801 c -1.929,0.402 -4.363,1.629 -7.238,1.32 -6.004,-0.637 -13.488,-6.996 -20.289,-13.07 -6.797,-6.082 -14.754,-7.52 -14.754,-3.606 0,3.965 6.649,2.407 14.477,9.774 8.984,8.472 17.015,11.738 23.621,10.312 2.988,-0.64 6.457,-2.664 6.457,-2.664 0,0 2.469,-2.148 1.699,-3.094 -0.766,-0.949 -2.68,0.758 -3.973,1.028"
         style="fill:#cfa53d;fill-opacity:1;fill-rule:evenodd;stroke:none"
         id="path112" /><path
         d="m 925.203,900.855 0.5,0.645 c 4.242,-21.215 8.61,-26.328 17.43,-16.047 0,0 -3.625,-9.582 -3.406,-12.594 0.562,-7.796 -3.899,-10.796 -5.219,-10.796 -1.332,0 -3.235,-2.735 -3.235,-2.735 0,0 -3.824,-0.465 -2.562,1.879 3.043,5.641 1.234,15.602 -3.508,39.648"
         style="fill:#cfa53d;fill-opacity:1;fill-rule:evenodd;stroke:none"
         id="path114" /><path
         d="m 838.215,889.02 c 0,0 -0.192,-5.446 4.176,-6.383 4.359,-0.953 8.152,3.562 9.675,6.008 1.52,2.445 -9.492,-4.317 -13.851,0.375"
         style="fill:#cfa53d;fill-opacity:1;fill-rule:evenodd;stroke:none"
         id="path116" /><path
         d="m 896.457,854.727 c 0,0 -5.691,-6.762 -11,-15.313 -3.141,-5.043 -9.676,-4.691 -9.676,-4.691 0,0 4.141,-2.532 8.731,-0.766 9.957,3.859 9.289,17.195 11.945,20.77"
         style="fill:#cfa53d;fill-opacity:1;fill-rule:evenodd;stroke:none"
         id="path118" /><path
         d="m 829.289,1076.36 c 1.902,-10.98 17.078,-18.72 17.078,-18.72 -3.73,-2.39 -1.539,-7.83 -1.539,-7.83 l -0.433,-1.3 c -4.168,-0.65 2.918,-9.7 2.918,-9.7 l -1.215,-2.14 c 0,0 -2.364,0.69 -3.047,-1.5 -1.707,-5.45 10.433,-15.22 10.433,-15.22 l -1.14,-0.29 c -14.696,4.19 -11,10.06 -11,10.06 v 1.13 c 0,0 -7.973,4.32 -9.485,8.08 -1.519,3.76 2.27,3.76 2.27,3.76 v 1.11 c -7.336,4.67 -6.848,7.97 -6.848,7.97 0,5.87 6.801,2.61 6.801,2.61 l 0.297,1.9 c -12.141,10.26 -7.316,18.95 -7.316,18.95 l 2.226,1.13"
         style="fill:#cfa53d;fill-opacity:1;fill-rule:evenodd;stroke:none"
         id="path120" /><path
         d="m 903.594,1082.42 c 0,0 -7.281,3.99 -5.844,7.31 l 2.398,4.56 c 0,0 2.106,-1.52 2.008,-2 -0.093,-0.47 -0.285,-1.89 -0.285,-1.89 0,0 1.055,5.4 2.199,6.26 1.149,0.86 6.52,3.51 6.805,4.08 0.289,0.57 0.672,1.05 0.672,1.05 0,0 -0.383,-3.61 -1.152,-4.09 -0.77,-0.47 -0.957,-1.04 -0.957,-1.04 0,0 4.027,1.52 5.464,2 1.43,0.47 2.203,1.61 2.203,1.61 l -1.148,-3.89 c 0,0 3.445,4.55 5.746,4.46 2.301,-0.1 5.652,0.57 5.652,0.57 0,0 -2.105,-3.61 -3.449,-4.37 -1.34,-0.76 -5.937,-1.52 -5.937,-1.52 0,0 2.965,-0.38 3.636,-0.95 0.672,-0.57 4.032,-1.52 4.032,-1.52 0,0 -4.121,-2.84 -5.18,-2.46 -1.055,0.38 -4.887,0.47 -6.418,1.23 -0.539,0.27 -1.726,-0.28 -1.726,-0.28 0,0 -1.532,-2.1 -0.192,-2.57 1.344,-0.47 2.207,-0.85 2.207,-0.85 0,0 -4.512,0.19 -5.371,-0.1 -0.859,-0.29 -3.547,-2.94 -3.547,-2.94 l 4.891,-4.93 c 0,0 2.59,-0.86 3.644,-0.58 1.047,0.29 2.871,3.33 5.172,3.52 1.625,0.13 4.696,1.42 4.696,1.42 l -1.727,-3.89 c 0,0 2.398,0.85 3.453,1.43 1.051,0.56 4.309,2.84 5.559,3.79 0,0 1.437,-3.89 -0.672,-5.22 0,0 3.926,3.89 8.047,2.38 0,0 -1.438,-5.51 -4.789,-5.61 -3.36,-0.09 -4.981,0.86 -4.981,0.86 l -1.254,-0.48 c 0,0 3.649,-2.27 4.028,-2.66 0.382,-0.38 -3.258,-1.51 -5.368,-1.13 -2.105,0.38 -5.937,2.46 -5.937,2.46 l 1.148,-2.27 2.203,-1.71 c 0,0 -3.445,-1.62 -5.46,-0.57 -2.012,1.05 -4.696,5.32 -4.696,5.32 l -0.574,-0.1 1.152,-5.13 c 0,0 -3.933,0.96 -4.699,1.43 -0.418,0.25 -4.789,5.41 -4.601,6.45 0.191,1.04 -1.051,2.56 -1.051,2.56"
         style="fill:#20170d;fill-opacity:1;fill-rule:evenodd;stroke:none"
         id="path122" /><path
         d="m 973.164,967.117 c 0,0 0.09,3.602 2.008,4.176 1.918,0.566 4.976,-1.328 4.976,-1.328 l 0.68,-1.141 c 0,0 4.985,0.567 6.129,-1.894 1.148,-2.473 1.34,-4.465 1.34,-4.465 l -0.863,-1.043 c 0,0 0.863,0 1.058,-0.477 0.192,-0.472 1.918,-4.554 1.535,-5.605 -0.379,-1.039 -1.047,-1.039 -1.047,-1.039 0,0 0.668,0.949 1.243,-1.61 0.566,-2.562 -0.102,-5.418 -0.102,-5.418 l -0.859,0.196 c 0,0 0,4.844 -0.387,5.027 -0.383,0.195 -0.957,0.195 -0.957,0.195 0,0 0.094,-0.855 -0.574,-0.957 -0.668,-0.089 -1.153,0.391 -1.153,0.391 0,0 -0.855,-0.668 -0.765,-1.047 0.094,-0.383 0.957,-3.32 0.957,-3.32 h -1.047 c 0,0 -1.441,4.555 -0.195,5.316 1.242,0.754 1.343,0.949 1.343,0.949 0,0 -1.148,-0.195 -1.343,0.184 -0.192,0.383 -1.442,4.461 -0.864,5.41 0.571,0.949 1.059,1.235 1.059,1.235 0,0 -1.336,0.57 -1.547,1.613 -0.184,1.043 -1.437,2.172 -0.996,3.176 0.426,1 0.523,0.617 0.523,0.617 0,0 -3.168,-0.379 -3.636,-0.188 -0.477,0.188 0.191,-3.035 0.191,-3.035 l -2.883,-1.422 c 0,0 0.461,-5.3 -2.207,-5.64 l -0.109,-0.871 c 0,0 4.141,-1.747 4.531,-5.446 l -1.461,-1.285 c 0,0 1.363,-0.043 1.738,-0.336 0.391,-0.277 2.434,-3.578 2.434,-3.578 l -1.43,-0.547 c 0,0 -1.113,3.336 -2.3,2.832 0,0 0.117,-1.179 -0.442,-1.418 -0.558,-0.222 -1.129,0.539 -1.129,0.539 0,0 -1.39,-0.621 0.692,-2.918 l -1.426,-0.437 c 0,0 -1.082,1.738 -1.082,2.398 0,0.668 0,1.645 0.426,1.731 l -0.11,0.433 c 0,0 -3.105,0.504 -3.675,4.008 -0.583,3.512 1.035,3.809 1.035,3.809 l -0.098,0.761 c 0,0 -1.887,1.125 -1.039,3.493 0.867,2.375 1.828,7.976 1.828,7.976"
         style="fill:#20170d;fill-opacity:1;fill-rule:evenodd;stroke:none"
         id="path124" /><path
         d="m 974.453,957.383 c 0,0 0.992,0.652 1.098,2.176 0.113,1.523 -0.438,1.082 -0.438,1.082 l -1.433,-0.754 v -1.414 c 0,0 0.773,0.433 0.773,-1.09"
         style="fill:#008061;fill-opacity:1;fill-rule:evenodd;stroke:none"
         id="path126" /><path
         d="m 973.629,953.113 c 0,0 -1.313,-2.066 1.207,-4.355 l 0.449,0.117 c 0,0 -1.551,1.727 -0.672,2.488 0.891,0.762 2.414,-1.515 2.414,-1.515 l 0.336,0.652 c 0,0 -2.078,1.41 -2.527,2.5 l -1.207,0.113"
         style="fill:#008061;fill-opacity:1;fill-rule:evenodd;stroke:none"
         id="path128" /><path
         d="m 986.883,955.109 c 0,0 -0.711,0.094 -0.973,0.985 -0.265,0.898 -0.449,2.687 -0.449,2.687 l 0.266,0.543 c 0,0 0.445,-0.453 0.796,-0.453 0.629,0 0.629,0.723 0.629,0.723 0,0 0.707,-0.09 0.805,-0.453 0.086,-0.36 0.703,-3.129 0.703,-3.129 l -0.535,-0.727 c 0,0 -0.535,1.172 -0.801,1.078 -0.258,-0.09 -0.965,-0.09 -0.441,-1.254"
         style="fill:#008061;fill-opacity:1;fill-rule:evenodd;stroke:none"
         id="path130" /><path
         d="m 929.641,869.016 c 0,0 5.363,3.035 7.664,5.312 0,0 -4.215,-4.742 -7.282,-6.637 l -0.382,1.325"
         style="fill:#20170d;fill-opacity:1;fill-rule:evenodd;stroke:none"
         id="path132" /><path
         d="m 929.063,865.785 c 0,0 5.371,3.039 7.667,5.317 0,0 -4.218,-4.75 -7.285,-6.641 l -0.382,1.324"
         style="fill:#20170d;fill-opacity:1;fill-rule:evenodd;stroke:none"
         id="path134" /><path
         d="m 928.488,862.563 c 0,0 5.364,3.039 7.668,5.316 0,0 -4.218,-4.75 -7.285,-6.645 l -0.383,1.329"
         style="fill:#20170d;fill-opacity:1;fill-rule:evenodd;stroke:none"
         id="path136" /><path
         d="m 927.91,859.328 c 0,0 5.367,3.051 7.664,5.317 0,0 -4.207,-4.739 -7.277,-6.633 l -0.387,1.316"
         style="fill:#20170d;fill-opacity:1;fill-rule:evenodd;stroke:none"
         id="path138" /><path
         d="m 919.25,1022.6 c 0,0 5.68,2.43 8.219,4.44 0,0 -4.731,-4.25 -7.985,-5.8 l -0.234,1.36"
         style="fill:#20170d;fill-opacity:1;fill-rule:evenodd;stroke:none"
         id="path140" /><path
         d="m 920.02,1020.89 c 0,0 5.671,2.43 8.207,4.43 0,0 -4.715,-4.24 -7.981,-5.78 l -0.226,1.35"
         style="fill:#20170d;fill-opacity:1;fill-rule:evenodd;stroke:none"
         id="path142" /><path
         d="m 920.785,1019.19 c 0,0 5.672,2.42 8.219,4.43 0,0 -4.734,-4.25 -7.992,-5.8 l -0.227,1.37"
         style="fill:#20170d;fill-opacity:1;fill-rule:evenodd;stroke:none"
         id="path144" /><path
         d="m 921.551,1017.48 c 0,0 5.672,2.42 8.215,4.43 0,0 -4.723,-4.25 -7.981,-5.79 l -0.234,1.36"
         style="fill:#20170d;fill-opacity:1;fill-rule:evenodd;stroke:none"
         id="path146" /><path
         d="m 922.313,1015.77 c 0,0 5.679,2.42 8.226,4.43 0,0 -4.734,-4.25 -7.996,-5.79 l -0.23,1.36"
         style="fill:#20170d;fill-opacity:1;fill-rule:evenodd;stroke:none"
         id="path148" /><path
         d="m 923.086,1014.06 c 0,0 5.668,2.43 8.207,4.43 0,0 -4.719,-4.24 -7.98,-5.79 l -0.227,1.36"
         style="fill:#20170d;fill-opacity:1;fill-rule:evenodd;stroke:none"
         id="path150" /><path
         d="m 921.023,1044.98 c 0,0 -2.363,1.7 -7.796,-1.74 l 0.429,-0.52 c 0,0 3.813,0.67 4.516,-1.11 l 1.113,0.19 c 0,0 1.36,1.58 1.738,3.18"
         style="fill:#20170d;fill-opacity:1;fill-rule:evenodd;stroke:none"
         id="path152" /></g></g></svg>
