<svg width="888" height="765.55412" xmlns="http://www.w3.org/2000/svg">
 <title>portfolio_feedback</title>

 <g>
  <title>background</title>
  <rect fill="none" id="canvas_background" height="602" width="802" y="-1" x="-1"/>
 </g>
 <g>
  <title>Layer 1</title>
  <path id="svg_1" fill="#e6e6e6" d="m655.933,18.19094l-31.573,0a23.44384,23.44384 0 0 1 -21.70579,32.298l-138.56866,0a23.44384,23.44384 0 0 1 -21.70579,-32.298l-29.48928,0a49.34527,49.34527 0 0 0 -49.34534,49.34521l0,625.40877a49.34529,49.34529 0 0 0 49.34534,49.34528l243.04252,0a49.34529,49.34529 0 0 0 49.34534,-49.34528l0,-625.40877a49.34527,49.34527 0 0 0 -49.34534,-49.34521z"/>
  <path id="svg_2" fill="#e6e6e6" d="m653.26693,760.48144l-241.87744,0a67.15329,67.15329 0 0 1 -67.07715,-67.07715l0,-626.32763a67.15287,67.15287 0 0 1 67.07715,-67.07666l241.87744,0a67.152,67.152 0 0 1 67.07617,67.07666l0,113.167l4.168,0l0,83.26563l-4.168,0l0,429.895a67.15246,67.15246 0 0 1 -67.07617,67.07715zm-241.87744,-758.48144a65.15059,65.15059 0 0 0 -65.07715,65.07666l0,626.32763a65.15069,65.15069 0 0 0 65.07715,65.07715l241.87744,0a65.15048,65.15048 0 0 0 65.07617,-65.07715l0,-431.895l4.168,0l0,-79.26564l-4.168,0l0,-115.16699a65.15038,65.15038 0 0 0 -65.07617,-65.07666l-241.87744,0z"/>
  <path id="svg_3" fill="#ffb8b8" d="m280.16038,406.38606l16.00073,24.78287l52.03362,-0.41521s21.87431,-12.35292 26.27272,3.93455c1.50637,5.57812 -21.39122,7.08774 -23.54737,7.21838c-5.39036,0.32658 -59.15,9.65409 -62.4691,4.87784s-20.777,-21.4638 -20.777,-21.4638l12.4864,-18.93463z"/>
  <path id="svg_4" fill="#fff" d="m431.41732,117.66894a3.50426,3.50426 0 0 0 -3.5,3.5l0,206a3.50425,3.50425 0 0 0 3.5,3.5l206,0a3.50424,3.50424 0 0 0 3.5,-3.5l0,-206a3.50425,3.50425 0 0 0 -3.5,-3.5l-206,0z"/>
  <path id="svg_5" fill="#039bdf" d="m619.35319,360.15294l-37.89354,0c-2.37,-21.07945 2.859,-36.79131 0,-45.47218l37.89354,0a237.22411,237.22411 0 0 0 0,45.47218z"/>
  <rect id="svg_6" fill="#ccc" height="144" width="319" y="411.16895" x="374.91176"/>
  <path id="svg_8" fill="#fff" d="m367.61557,403.41797a2.50294,2.50294 0 0 0 -2.5,2.5l0,138a2.50263,2.50263 0 0 0 2.5,2.5l313,0a2.50232,2.50232 0 0 0 2.5,-2.5l0,-138a2.50263,2.50263 0 0 0 -2.5,-2.5l-313,0z"/>
  <rect id="svg_29" fill="#3f3d56" height="2.24072" width="888" y="761.49655"/>
  <path id="svg_30" fill="#ff6584" d="m626.79026,583.17886l37.89351,0c2.36989,-17.48761 -2.859,-33.81382 0,-45.47221l-37.89351,0q-10.70167,22.7361 0,45.47221z"/>
  <path id="svg_31" fill="#039bdf" d="m597.05468,574.91444l-37.89352,0c1.42086,-17.48446 6.002,-33.81121 0,-45.47221l37.89352,0q10.70168,22.73612 0,45.47221z"/>
  <path id="svg_32" fill="#2f2e41" d="m286.63075,316.07288s13.022,-4.65071 21.3933,13.95215s21.39329,39.066 21.39329,39.066l-7.44114,1.86029s-1.86029,-13.022 -6.511,-14.88229l1.86029,16.74258s-55.8086,19.533 -80.92247,-1.86029l0.93014,-6.511s-3.72057,0.93014 -3.72057,6.511l-2.79043,-2.79043s2.79043,-5.58086 11.16172,-13.022c5.49455,-4.884 7.38271,-14.17588 8.03157,-19.98529a24.18451,24.18451 0 0 1 5.56795,-13.1702c5.56314,-6.44734 15.69998,-13.29999 31.04735,-5.91052z"/>
  <path id="svg_33" fill="#ffb8b8" d="m211.28324,674.68053l-32.431,48.0874l30.19441,30.19441l3.91409,-7.82818l-6.70987,-15.65636s1.11831,-14.538 5.0324,-18.45214s21.2479,-27.3986 21.2479,-27.3986l-21.24793,-8.94653z"/>
  <path id="svg_34" fill="#2f2e41" d="m252.66077,519.23522s-6.1495,9.73307 6.71108,51.66975c0,0 -59.98732,101.24324 -50.48167,107.95311s35.22875,21.55935 41.93862,17.0861s55.51093,-156.0202 55.51093,-156.0202l-53.67896,-20.68876z"/>
  <path id="svg_35" fill="#2f2e41" d="m184.72334,714.10106l-9.78522,9.78522c-5.03241,5.03241 -8.38734,12.30143 1.11831,18.45214s42.49584,29.07611 53.679,21.80708s-13.41974,-13.97889 -13.41974,-13.97889s-4.06819,-15.084 -6.22777,-11.73567s-2.15957,10.0582 -2.15957,10.0582l-23.20501,-34.38808z"/>
  <path id="svg_36" fill="#ffb8b8" d="m302.9848,700.96086s17.893,32.99019 17.893,36.90428s-1.11831,15.0972 -1.11831,15.0972l34.1085,8.38734l11.74228,-5.59156l-3.91409,-10.0648s-21.24792,-7.269 -25.72117,-21.24792s-9.50565,-28.51695 -9.50565,-28.51695l-23.48456,5.03241z"/>
  <circle id="svg_37" fill="#ffb8b8" r="23.48454" cy="349.25186" cx="282.29603"/>
  <path id="svg_38" fill="#ffb8b8" d="m288.44675,369.38146l-11.21216,32.21577l-24.57382,-10.96785s16.77468,-25.72116 16.77468,-29.0761l19.0113,7.82818z"/>
  <path id="svg_39" fill="#2f2e41" d="m291.80168,484.0084l-29.63526,0s-21.24792,32.431 -8.94649,66.53954a176.81556,176.81556 0 0 1 5.62028,21.19c4.29247,19.89352 8.56624,46.84089 12.94592,71.603c6.15193,34.78225 12.51282,65.25288 19.428,65.8061c13.9789,1.11831 41.162,0.93171 41.162,-4.65985s-18.2082,-167.359 -18.2082,-167.359l-3.91409,-6.70987l-0.73984,-29.22726a17.629,17.629 0 0 0 -17.71231,-17.18265l-0.00001,-0.00001z"/>
  <path id="svg_40" fill="#2f2e41" d="m321.15736,737.58556s-6.43029,10.90354 -4.75282,18.73172s4.47324,6.70987 16.77467,7.82818s54.23811,1.11831 54.23811,-6.70987s-32.7142,-17.99424 -32.8522,-14.86825s-1.2563,9.27669 2.09863,10.395s0.27958,0.27958 0.27958,0.27958l-35.78597,-15.65636z"/>
  <path id="svg_41" fill="#2f2e41" d="m264.38694,499.59241c4.37277,0 13.77767,-11.23226 18.69977,-6.30988c3.57991,3.5799 6.61759,7.01866 9.29761,10.05251c7.6933,8.70924 14.41893,16.691 19.09266,10.96415c0.70646,-0.86565 -1.66859,1.13361 0.31193,-0.21377a4.79174,4.79174 0 0 0 1.93136,-5.19976c-6.78141,-21.24571 -11.00436,-41.59925 -5.61185,-58.59986a13.7932,13.7932 0 0 0 0.567,-4.16q0.00068,-0.3087 0.02871,-0.61829c0.285,-3.13734 0.21351,-14.37369 -12.66073,-27.24793c-11.7663,-11.76629 -14.02367,-18.99655 -14.32127,-22.2592c-0.06989,-0.75983 -19.03723,-20.43868 -19.03723,-20.43868a4.76866,4.76866 0 0 0 -5.71087,1.60294l-6.07549,8.35381a79.90455,79.90455 0 0 0 -8.33208,42.31968c1.64487,18.95539 4.50058,56.44153 6.846,69.96334a4.93994,4.93994 0 0 0 1.82923,3.11564a4.70958,4.70958 0 0 0 4.82126,0.57069a20.3058,20.3058 0 0 1 8.32399,-1.89539z"/>
  <polygon id="svg_42" opacity="0.2" points="271.168 645.108 260.148 571.682 269.111 650.948 271.168 645.108"/>
  <path id="svg_43" fill="#ffb8b8" d="m285.16038,427.38606l16.00073,24.78287l52.03362,-0.41521s21.87431,-12.35292 26.27272,3.93455c1.50637,5.57812 -21.39122,7.08774 -23.54737,7.21838c-5.39036,0.32658 -59.15,9.65409 -62.4691,4.87784s-20.777,-21.4638 -20.777,-21.4638l12.4864,-18.93463z"/>
  <path id="svg_44" fill="#2f2e41" d="m261.23068,410.0003s9.08538,-5.92343 21.55883,4.6097s14.96814,19.95752 14.96814,19.95752l-29.3819,17.46283s-28.7039,-30.56286 -7.14507,-42.03005z"/>
  <path id="svg_45" fill="#2f2e41" d="m307.44453,350.30057c-9.271,-6.09346 -16.77568,-13.11187 -21.74,-21.46061c0,0 -17.01394,17.16849 -27.41134,18.02691s-0.94522,-20.60219 -0.94522,-20.60219l18.90437,-4.29212l17.95915,1.71685l14.17828,8.58424l-0.94524,18.02692z"/>
  <ellipse id="svg_46" fill="#ffb8b8" ry="4.5" rx="2.5" cy="348.66895" cx="258.91732"/>

  <g stroke="null" id="svg_56">
   <g transform="matrix(1.9887121611149114,0,0,1.9553784423267815,324.7389821057095,294.2621766744851) " id="svg_51" fill-rule="evenodd" fill="none">
    <g stroke="null" id="svg_52">
     <path stroke="null" id="svg_54" fill="#57BB63" d="m104.21919,-6.04767c16.56854,0 30,-13.43146 30,-30c0,-16.56854 -13.43146,-30 -30,-30c-16.56854,0 -30,13.43146 -30,30c0,16.56854 13.43146,30 30,30z"/>
     <path stroke="null" id="svg_55" fill="#FFFFFF" d="m104.29045,-19.82662c-2.86043,0 -5.54769,-0.73108 -7.88566,-2.01416l-9.03175,2.87003l2.94424,-8.68504c-1.48504,-2.43951 -2.34055,-5.30031 -2.34055,-8.35828c0,-8.94018 7.30375,-16.18745 16.31409,-16.18745c9.00923,0 16.31299,7.24727 16.31299,16.18745c0,8.94018 -7.30339,16.18745 -16.31336,16.18745zm0,-29.79693c-7.56332,0 -13.71544,6.10523 -13.71544,13.60948c0,2.97785 0.9707,5.73563 2.6123,7.97945l-1.71323,5.05403l5.2704,-1.6752c2.16591,1.4219 4.76013,2.2512 7.54597,2.2512c7.56222,0 13.71545,-6.10486 13.71545,-13.60911c0,-7.50425 -6.15323,-13.60985 -13.71545,-13.60985l0,0zm8.23754,17.3376c-0.10043,-0.16504 -0.36702,-0.26474 -0.76615,-0.46301c-0.40025,-0.19828 -2.36677,-1.15865 -2.73268,-1.29046c-0.36702,-0.13219 -0.63397,-0.19902 -0.90019,0.19827c-0.26621,0.3973 -1.03273,1.29046 -1.26646,1.5552c-0.23335,0.26511 -0.46634,0.29834 -0.86621,0.0997c-0.39951,-0.19828 -1.68813,-0.61736 -3.216,-1.96911c-1.18856,-1.05157 -1.99126,-2.34979 -2.22425,-2.74745c-0.23335,-0.39692 -0.02474,-0.61144 0.17539,-0.80898c0.17981,-0.17797 0.39987,-0.46339 0.6,-0.6949c0.20012,-0.23187 0.26658,-0.39692 0.3995,-0.66203c0.13367,-0.26473 0.06683,-0.49624 -0.03323,-0.69526c-0.10006,-0.19827 -0.90018,-2.15077 -1.23323,-2.94535c-0.33304,-0.79385 -0.66572,-0.66166 -0.89944,-0.66166c-0.23336,0 -0.49994,-0.03323 -0.76653,-0.03323c-0.26658,0 -0.70006,0.09932 -1.0667,0.49624c-0.36628,0.39729 -1.39902,1.35729 -1.39902,3.30942c0,1.95249 1.43225,3.83889 1.63274,4.10326c0.19975,0.26437 2.76554,4.40123 6.8304,5.99003c4.06634,1.58843 4.06634,1.05858 4.79963,0.99249c0.73218,-0.06609 2.36492,-0.95963 2.69908,-1.88603c0.33267,-0.92714 0.33267,-1.72172 0.23335,-1.88714l0,0z"/>
    </g>
   </g>
  </g>
  <g stroke="null" id="svg_76">
   <g stroke="null" transform="matrix(0.17129145111051386,0,0,0.17303762341951578,-765.0371387531095,-685.243269549283) " id="svg_61">
    <circle stroke="null" id="svg_62" r="94.039" fill="#f9f3f1" cy="6827.32788" cx="7199.06935"/>
    <path stroke="null" id="svg_63" fill="#efe2dd" d="m7265.56035,6893.82288c-36.723,36.723 -96.26,36.723 -132.983,0c-1.321,-1.321 -2.6,-2.683 -3.818,-4.065c36.723,26.136 88.005,22.731 120.931,-10.195c35.382,-35.382 36.672,-91.957 3.859,-128.887c4.21,2.992 8.234,6.377 12.011,10.153c36.733,36.724 36.733,96.271 0,132.994z"/>
    <g stroke="null" id="svg_64">
     <path stroke="null" id="svg_65" fill="#fec165" d="m7084.97935,6454.99488c18.4,-34.802 61.528,-48.098 96.33,-29.697l130.308,68.895c34.801,18.4 48.097,61.528 29.697,96.33c-18.4,34.801 -61.528,48.097 -96.33,29.697l-130.308,-68.896c-34.801,-18.399 -48.097,-61.528 -29.697,-96.329z"/>
     <path stroke="null" id="svg_66" fill="#fdb441" d="m7341.31735,6590.52488c-0.609,1.156 -1.249,2.291 -1.94,3.405c7.708,-31.048 -6.346,-64.5 -35.898,-80.122l-130.3,-68.896c-33.648,-17.789 -75.066,-5.954 -94.393,26.291c1.362,-5.51 3.415,-10.958 6.191,-16.21c18.398,-34.804 61.529,-48.094 96.332,-29.696l130.311,68.896c34.795,18.397 48.095,61.528 29.697,96.332z"/>
     <path stroke="null" id="svg_67" fill="#6bd9e7" d="m7179.83035,6585.77288l66.633,-126.027l65.154,34.448c34.801,18.4 48.097,61.528 29.697,96.33c-18.4,34.801 -61.528,48.097 -96.33,29.697l-65.154,-34.448z"/>
     <path stroke="null" id="svg_68" fill="#2ed1e2" d="m7341.31735,6590.52488c-0.341,0.65 -0.702,1.29 -1.063,1.93c-0.279,0.495 -0.578,0.991 -0.877,1.476c7.708,-31.048 -6.346,-64.5 -35.898,-80.122l-66.894,-35.371l9.875,-18.687l65.161,34.443c34.794,18.396 48.094,61.527 29.696,96.331z"/>
    </g>
    <g stroke="null" id="svg_69">
     <path stroke="null" id="svg_70" fill="#7acaa6" d="m7061.74835,6604.95588c28.077,27.594 28.468,72.723 0.875,100.8l-103.32,105.128c-27.594,28.077 -72.723,28.468 -100.8,0.875c-28.077,-27.594 -28.468,-72.723 -0.875,-100.8l103.319,-105.128c27.594,-28.077 72.724,-28.469 100.801,-0.875z"/>
     <path stroke="null" id="svg_71" fill="#57be92" d="m6858.50135,6811.76188c-0.933,-0.914 -1.837,-1.852 -2.707,-2.834c27.542,16.274 63.617,12.386 87.046,-11.456l103.317,-105.121c26.678,-27.147 27.196,-70.219 1.834,-97.968c4.889,2.883 9.522,6.41 13.759,10.573c28.08,27.592 28.465,72.722 0.873,100.802l-103.32,105.131c-27.589,28.069 -72.722,28.465 -100.802,0.873z"/>
     <path stroke="null" id="svg_72" fill="#ee6161" d="m6909.28835,6658.39488l101.675,99.925l-51.66,52.564c-27.594,28.077 -72.723,28.468 -100.8,0.875c-28.077,-27.594 -28.468,-72.723 -0.875,-100.8l51.66,-52.564z"/>
     <path stroke="null" id="svg_73" fill="#e94444" d="m6858.50135,6811.76188c-0.525,-0.512 -1.035,-1.042 -1.544,-1.571c-0.395,-0.409 -0.784,-0.837 -1.163,-1.263c27.542,16.274 63.617,12.386 87.046,-11.456l53.043,-53.967l15.077,14.811l-51.657,52.572c-27.589,28.07 -72.722,28.466 -100.802,0.874z"/>
    </g>
    <g stroke="null" id="svg_74">
     <path stroke="null" id="svg_75" fill="#cdbfba" d="m7232.81335,6868.57188c-1.92,0 -3.839,-0.732 -5.304,-2.197l-67.487,-67.488c-2.929,-2.929 -2.929,-7.678 0,-10.606c2.931,-2.929 7.679,-2.929 10.607,0l67.487,67.488c2.929,2.929 2.929,7.678 0,10.606c-1.464,1.464 -3.384,2.197 -5.303,2.197z"/>
    </g>
   </g>
  </g>
  <g stroke="null" id="svg_108">
   <path stroke="null" id="svg_82" fill="#039bdf" d="m538.82472,532.25899l-34.26075,-33.6799c-3.44051,-3.38221 -3.44051,-8.86574 0,-12.24795l66.15471,-65.03406c3.44051,-3.38221 9.01856,-3.38221 12.45906,0l34.26075,33.68021c3.44051,3.38221 3.44051,8.86574 0,12.24795l-66.15471,65.03375c-3.44051,3.38221 -9.01856,3.38221 -12.45906,0z"/>
   <path stroke="null" id="svg_83" fill="#ebf0f3" d="m578.95949,447.1834c-4.05766,0 -7.45283,-2.81568 -8.27497,-6.57013c-0.11941,-0.56056 -0.1855,-1.14718 -0.1855,-1.74666c0,-0.33897 0.0265,-0.69082 0.06641,-1.01692c0.0265,-0.24764 0.06641,-0.48241 0.11941,-0.73005c0.82213,-3.75445 4.21698,-6.57013 8.27497,-6.57013s7.45251,2.81568 8.27465,6.57013c0.053,0.24764 0.09291,0.48241 0.11941,0.73005c0.03991,0.32579 0.06641,0.67795 0.06641,1.01692c0,0.59948 -0.06641,1.18641 -0.1855,1.74666c-0.82245,3.75445 -4.2173,6.57013 -8.27529,6.57013z"/>
   <path stroke="null" id="svg_84" fill="#d5d6db" d="m587.23445,440.61327l-16.54961,0c-0.11941,-0.56056 -0.1855,-1.14718 -0.1855,-1.74666c0,-0.33897 0.0265,-0.69082 0.06641,-1.01692c0.0265,-0.24764 0.06641,-0.48241 0.11941,-0.73005l16.54961,0c0.053,0.24764 0.09291,0.48241 0.11941,0.73005c0.03991,0.32579 0.06641,0.67795 0.06641,1.01692c-0.00064,0.59948 -0.06705,1.1861 -0.18614,1.74666z"/>
   <path stroke="null" id="svg_85" fill="#b6b7ba" d="m587.30501,437.55151c-0.02043,-0.14312 -0.03927,-0.2853 -0.07056,-0.43188l-16.54961,0c-0.03129,0.14657 -0.05013,0.28876 -0.07056,0.43188l16.69073,0z"/>
   <path stroke="null" id="svg_86" fill="#ebf0f3" d="m599.56804,467.44275c-4.05766,0 -7.45283,-2.81568 -8.27497,-6.57013c-0.11941,-0.56056 -0.1855,-1.14718 -0.1855,-1.74666c0,-0.33897 0.0265,-0.69082 0.06641,-1.01692c0.0265,-0.24764 0.06641,-0.48241 0.11941,-0.73005c0.82213,-3.75445 4.21698,-6.57013 8.27497,-6.57013s7.45251,2.81568 8.27465,6.57013c0.053,0.24764 0.09291,0.48241 0.11941,0.73005c0.03991,0.32579 0.06641,0.67795 0.06641,1.01692c0,0.59948 -0.06641,1.18641 -0.1855,1.74666c-0.82245,3.75445 -4.2173,6.57013 -8.27529,6.57013z"/>
   <path stroke="null" id="svg_87" fill="#d5d6db" d="m607.84301,460.87262l-16.54961,0c-0.11941,-0.56056 -0.1855,-1.14718 -0.1855,-1.74666c0,-0.33897 0.0265,-0.69082 0.06641,-1.01692c0.0265,-0.24764 0.06641,-0.48241 0.11941,-0.73005l16.54961,0c0.053,0.24764 0.09291,0.48241 0.11941,0.73005c0.03991,0.32579 0.06641,0.67795 0.06641,1.01692c-0.00064,0.59948 -0.06705,1.1861 -0.18614,1.74666z"/>
   <path stroke="null" id="svg_88" fill="#b6b7ba" d="m607.91357,457.81087c-0.02043,-0.14312 -0.03927,-0.2853 -0.07056,-0.43188l-16.54961,0c-0.03129,0.14657 -0.05013,0.28876 -0.07056,0.43188l16.69073,0z"/>
   <path stroke="null" id="svg_89" fill="#ebf0f3" d="m560.11844,465.70551c-4.05766,0 -7.45251,-2.81568 -8.27497,-6.57013c-0.11941,-0.56056 -0.1855,-1.14718 -0.1855,-1.74666c0,-0.33897 0.0265,-0.69082 0.06641,-1.01692c0.0265,-0.24764 0.06641,-0.48241 0.11941,-0.73005c0.82213,-3.75445 4.21698,-6.57013 8.27497,-6.57013s7.45251,2.81568 8.27465,6.57013c0.053,0.24764 0.09291,0.48241 0.11941,0.73005c0.03991,0.32579 0.06641,0.67795 0.06641,1.01692c0,0.59948 -0.06641,1.18641 -0.1855,1.74666c-0.82277,3.75414 -4.2173,6.57013 -8.27529,6.57013z"/>
   <path stroke="null" id="svg_90" fill="#d5d6db" d="m568.39309,459.13506l-16.54961,0c-0.11941,-0.56056 -0.1855,-1.14718 -0.1855,-1.74666c0,-0.33897 0.0265,-0.69082 0.06641,-1.01692c0.0265,-0.24764 0.06641,-0.48241 0.11941,-0.73005l16.54961,0c0.053,0.24764 0.09291,0.48241 0.11941,0.73005c0.03991,0.32579 0.06641,0.67795 0.06641,1.01692c-0.00032,0.59948 -0.06673,1.1861 -0.18614,1.74666z"/>
   <path stroke="null" id="svg_91" fill="#b6b7ba" d="m568.46396,456.07331c-0.02043,-0.14312 -0.03927,-0.2853 -0.07056,-0.43188l-16.54961,0c-0.03129,0.14657 -0.05013,0.28876 -0.07056,0.43188l16.69073,0z"/>
   <path stroke="null" id="svg_92" fill="#ebf0f3" d="m572.26653,477.64775c0,-3.98891 2.86421,-7.32655 6.68338,-8.13475c0.57022,-0.11739 1.16695,-0.18236 1.77676,-0.18236c0.34482,0 0.70272,0.02605 1.03445,0.06528c0.25191,0.02605 0.49073,0.06528 0.74263,0.11739c3.81917,0.8082 6.68338,4.14553 6.68338,8.13475s-2.86421,7.32623 -6.68338,8.13444c-0.25191,0.0521 -0.49073,0.09133 -0.74263,0.11739c-0.33141,0.03923 -0.68963,0.06528 -1.03445,0.06528c-0.60982,0 -1.20686,-0.06528 -1.77676,-0.18236c-3.81917,-0.80883 -6.68338,-4.14616 -6.68338,-8.13506z"/>
   <path stroke="null" id="svg_93" fill="#d5d6db" d="m578.94991,485.78219l0,-16.26919c0.57022,-0.11739 1.16695,-0.18236 1.77676,-0.18236c0.34482,0 0.70272,0.02605 1.03445,0.06528c0.25191,0.02605 0.49073,0.06528 0.74263,0.11739l0,16.26919c-0.25191,0.0521 -0.49073,0.09133 -0.74263,0.11739c-0.33141,0.03923 -0.68963,0.06528 -1.03445,0.06528c-0.60982,-0.00063 -1.20654,-0.0656 -1.77676,-0.18298z"/>
   <path stroke="null" id="svg_94" fill="#b6b7ba" d="m582.06444,485.85156c0.14559,-0.02009 0.29022,-0.03861 0.43932,-0.06936l0,-16.26919c-0.1491,-0.03076 -0.29373,-0.04928 -0.43932,-0.06936l0,16.40792z"/>
   <path stroke="null" id="svg_95" fill="#ebf0f3" d="m547.25964,481.79108c-2.86932,2.8207 -7.29511,3.1895 -10.57726,1.10637c-0.48753,-0.31355 -0.95655,-0.68203 -1.38757,-1.10606c-0.24393,-0.23979 -0.47827,-0.50689 -0.68453,-0.7652c-0.15932,-0.19365 -0.30012,-0.387 -0.4406,-0.59917c-2.11903,-3.22622 -1.74388,-7.57733 1.12544,-10.39803s7.29511,-3.1895 10.57694,-1.10606c0.21551,0.13841 0.4125,0.27651 0.6095,0.43313c0.26244,0.20276 0.53447,0.43313 0.77839,0.67293c0.43134,0.42403 0.80649,0.88479 1.12512,1.36406c2.11903,3.22653 1.74388,7.57733 -1.12544,10.39803z"/>
   <path stroke="null" id="svg_96" fill="#d5d6db" d="m548.38509,471.39337l-11.70238,11.50409c-0.48753,-0.31355 -0.95655,-0.68203 -1.38757,-1.10606c-0.24393,-0.23979 -0.47827,-0.50689 -0.68453,-0.7652c-0.15932,-0.19365 -0.30012,-0.387 -0.4406,-0.59917l11.70238,-11.50409c0.21551,0.13841 0.4125,0.27651 0.6095,0.43313c0.26244,0.20276 0.53447,0.43313 0.77839,0.67293c0.4307,0.42435 0.80585,0.8851 1.12481,1.36437z"/>
   <path stroke="null" id="svg_97" fill="#b6b7ba" d="m546.23254,469.17937c-0.11749,-0.08694 -0.23307,-0.17451 -0.36046,-0.25643l-11.70238,11.50409c0.08333,0.12555 0.17241,0.23885 0.26085,0.35435l11.802,-11.60202z"/>
   <path stroke="null" id="svg_98" fill="#ebf0f3" d="m561.88594,504.48666c-4.05766,0 -7.45283,-2.81568 -8.27497,-6.57013c-0.11941,-0.56056 -0.1855,-1.14718 -0.1855,-1.74666c0,-0.33897 0.0265,-0.69082 0.06641,-1.01692c0.0265,-0.24764 0.06641,-0.48241 0.11941,-0.73005c0.82213,-3.75445 4.21698,-6.57013 8.27497,-6.57013s7.45251,2.81568 8.27465,6.57013c0.053,0.24764 0.09291,0.48241 0.11941,0.73005c0.03991,0.32579 0.06641,0.67795 0.06641,1.01692c0,0.59948 -0.06641,1.1861 -0.1855,1.74666c-0.82277,3.75414 -4.21762,6.57013 -8.27529,6.57013z"/>
   <path stroke="null" id="svg_99" fill="#d5d6db" d="m570.16059,497.91621l-16.54961,0c-0.11941,-0.56056 -0.1855,-1.14718 -0.1855,-1.74666c0,-0.33897 0.0265,-0.69082 0.06641,-1.01692c0.0265,-0.24764 0.06641,-0.48241 0.11941,-0.73005l16.54961,0c0.053,0.24764 0.09291,0.48241 0.11941,0.73005c0.03991,0.32579 0.06641,0.67795 0.06641,1.01692c-0.00064,0.59948 -0.06673,1.18641 -0.18614,1.74666z"/>
   <path stroke="null" id="svg_100" fill="#b6b7ba" d="m570.23115,494.85446c-0.02043,-0.14312 -0.03927,-0.2853 -0.07056,-0.43188l-16.54961,0c-0.03129,0.14657 -0.05013,0.28876 -0.07056,0.43188l16.69073,0z"/>
   <path stroke="null" id="svg_101" fill="#ebf0f3" d="m522.43634,502.7491c-4.05766,0 -7.45283,-2.81568 -8.27497,-6.57013c-0.11941,-0.56056 -0.1855,-1.14718 -0.1855,-1.74666c0,-0.33897 0.0265,-0.69082 0.06641,-1.01692c0.0265,-0.24764 0.06641,-0.48241 0.11941,-0.73005c0.82213,-3.75445 4.21698,-6.57013 8.27497,-6.57013s7.45251,2.81568 8.27465,6.57013c0.053,0.24764 0.09291,0.48241 0.11941,0.73005c0.03991,0.32579 0.06641,0.67795 0.06641,1.01692c0,0.59948 -0.06641,1.18641 -0.1855,1.74666c-0.82277,3.75445 -4.21762,6.57013 -8.27529,6.57013z"/>
   <path stroke="null" id="svg_102" fill="#d5d6db" d="m530.71099,496.17897l-16.54961,0c-0.11941,-0.56056 -0.1855,-1.14718 -0.1855,-1.74666c0,-0.33897 0.0265,-0.69082 0.06641,-1.01692c0.0265,-0.24764 0.06641,-0.48241 0.11941,-0.73005l16.54961,0c0.053,0.24764 0.09291,0.48241 0.11941,0.73005c0.03991,0.32579 0.06641,0.67795 0.06641,1.01692c-0.00064,0.59948 -0.06673,1.1861 -0.18614,1.74666z"/>
   <path stroke="null" id="svg_103" fill="#b6b7ba" d="m530.78155,493.11721c-0.02043,-0.14312 -0.03927,-0.2853 -0.07056,-0.43188l-16.54961,0c-0.03129,0.14657 -0.05013,0.28876 -0.07056,0.43188l16.69073,0z"/>
   <path stroke="null" id="svg_104" fill="#ebf0f3" d="m543.04458,523.00845c-4.05766,0 -7.45283,-2.81568 -8.27497,-6.57013c-0.11941,-0.56056 -0.1855,-1.14718 -0.1855,-1.74666c0,-0.33897 0.0265,-0.69082 0.06641,-1.01692c0.0265,-0.24764 0.06641,-0.48241 0.11941,-0.73005c0.82213,-3.75445 4.21698,-6.57013 8.27497,-6.57013s7.45251,2.81568 8.27465,6.57013c0.053,0.24764 0.09291,0.48241 0.11941,0.73005c0.03991,0.32579 0.06641,0.67795 0.06641,1.01692c0,0.59948 -0.06641,1.18641 -0.1855,1.74666c-0.82245,3.75445 -4.2173,6.57013 -8.27529,6.57013z"/>
   <path stroke="null" id="svg_105" fill="#d5d6db" d="m551.31954,516.43832l-16.54961,0c-0.11941,-0.56056 -0.1855,-1.14718 -0.1855,-1.74666c0,-0.33897 0.0265,-0.69082 0.06641,-1.01692c0.0265,-0.24764 0.06641,-0.48241 0.11941,-0.73005l16.54961,0c0.053,0.24764 0.09291,0.48241 0.11941,0.73005c0.03991,0.32579 0.06641,0.67795 0.06641,1.01692c-0.00064,0.59948 -0.06705,1.1861 -0.18614,1.74666z"/>
   <path stroke="null" id="svg_106" fill="#b6b7ba" d="m551.3901,513.37657c-0.02043,-0.14312 -0.03927,-0.2853 -0.07056,-0.43188l-16.54961,0c-0.03129,0.14657 -0.05013,0.28876 -0.07056,0.43188l16.69073,0z"/>
  </g>
 </g>
</svg>